<mxfile host="Electron" agent="Mozilla/5.0 (Windows NT 10.0; Win64; x64) AppleWebKit/537.36 (KHTML, like Gecko) draw.io/27.0.9 Chrome/134.0.6998.205 Electron/35.4.0 Safari/537.36" version="27.0.9" pages="2">
  <diagram id="C5RBs43oDa-KdzZeNtuy" name="Page-1">
    <mxGraphModel dx="1626" dy="960" grid="1" gridSize="10" guides="1" tooltips="1" connect="1" arrows="1" fold="1" page="1" pageScale="1" pageWidth="827" pageHeight="1169" math="0" shadow="0">
      <root>
        <mxCell id="WIyWlLk6GJQsqaUBKTNV-0" />
        <mxCell id="WIyWlLk6GJQsqaUBKTNV-1" parent="WIyWlLk6GJQsqaUBKTNV-0" />
        <mxCell id="P2nM8D4QdgFcugDJESoO-22" style="edgeStyle=orthogonalEdgeStyle;rounded=0;orthogonalLoop=1;jettySize=auto;html=1;entryX=-0.007;entryY=0.1;entryDx=0;entryDy=0;entryPerimeter=0;" parent="WIyWlLk6GJQsqaUBKTNV-1" target="zrbItNrb6_JpAVsrPDAK-38" edge="1">
          <mxGeometry relative="1" as="geometry">
            <mxPoint x="920" y="440" as="sourcePoint" />
            <mxPoint x="1120" y="390" as="targetPoint" />
            <Array as="points">
              <mxPoint x="920" y="520" />
              <mxPoint x="998" y="520" />
              <mxPoint x="998" y="414" />
            </Array>
          </mxGeometry>
        </mxCell>
        <mxCell id="P2nM8D4QdgFcugDJESoO-23" value="Defines&lt;div&gt;database builder&lt;/div&gt;" style="edgeLabel;html=1;align=center;verticalAlign=middle;resizable=0;points=[];" parent="P2nM8D4QdgFcugDJESoO-22" vertex="1" connectable="0">
          <mxGeometry x="-0.5942" y="-3" relative="1" as="geometry">
            <mxPoint x="83" y="-40" as="offset" />
          </mxGeometry>
        </mxCell>
        <mxCell id="zkfFHV4jXpPFQw0GAbJ--0" value="&lt;font style=&quot;color: rgb(102, 255, 179);&quot;&gt;ProductRepository&lt;/font&gt;(productDao: &lt;font color=&quot;#66b2ff&quot;&gt;&lt;font color=&quot;#66b2ff&quot;&gt;ProductDao&lt;/font&gt;&lt;/font&gt;)" style="swimlane;fontStyle=0;align=center;verticalAlign=top;childLayout=stackLayout;horizontal=1;startSize=26;horizontalStack=0;resizeParent=1;resizeLast=0;collapsible=1;marginBottom=0;rounded=0;shadow=0;strokeWidth=1;spacingLeft=19;swimlaneFillColor=none;html=1;" parent="WIyWlLk6GJQsqaUBKTNV-1" vertex="1">
          <mxGeometry x="960" y="40" width="320" height="162" as="geometry">
            <mxRectangle x="230" y="140" width="160" height="26" as="alternateBounds" />
          </mxGeometry>
        </mxCell>
        <mxCell id="zkfFHV4jXpPFQw0GAbJ--1" value="getProducts() : Flow&amp;lt;List&amp;lt;&lt;span style=&quot;color: rgb(255, 153, 255); text-align: center;&quot;&gt;&amp;nbsp;&lt;span style=&quot;color: rgb(255, 153, 255); text-align: center;&quot;&gt;Product&lt;/span&gt;&lt;/span&gt;&amp;gt;&amp;gt;" style="text;align=left;verticalAlign=top;spacingLeft=15;spacingRight=4;overflow=hidden;rotatable=0;points=[[0,0.5],[1,0.5]];portConstraint=eastwest;html=1;" parent="zkfFHV4jXpPFQw0GAbJ--0" vertex="1">
          <mxGeometry y="26" width="320" height="34" as="geometry" />
        </mxCell>
        <mxCell id="zkfFHV4jXpPFQw0GAbJ--2" value="addProduct(product : &amp;nbsp;&lt;span style=&quot;color: rgb(255, 153, 255); text-align: center;&quot;&gt;Product&lt;/span&gt;)" style="text;align=left;verticalAlign=top;spacingLeft=15;spacingRight=4;overflow=hidden;rotatable=0;points=[[0,0.5],[1,0.5]];portConstraint=eastwest;rounded=0;shadow=0;html=1;" parent="zkfFHV4jXpPFQw0GAbJ--0" vertex="1">
          <mxGeometry y="60" width="320" height="34" as="geometry" />
        </mxCell>
        <mxCell id="zkfFHV4jXpPFQw0GAbJ--3" value="updateProduct(product :&amp;nbsp;&lt;span style=&quot;color: rgb(255, 153, 255); text-align: center;&quot;&gt;&amp;nbsp;&lt;span style=&quot;color: rgb(255, 153, 255); text-align: center;&quot;&gt;Product&lt;/span&gt;&lt;/span&gt;)" style="text;align=left;verticalAlign=top;spacingLeft=15;spacingRight=4;overflow=hidden;rotatable=0;points=[[0,0.5],[1,0.5]];portConstraint=eastwest;rounded=0;shadow=0;html=1;" parent="zkfFHV4jXpPFQw0GAbJ--0" vertex="1">
          <mxGeometry y="94" width="320" height="34" as="geometry" />
        </mxCell>
        <mxCell id="zkfFHV4jXpPFQw0GAbJ--5" value="deleteProduct(product :&amp;nbsp;&lt;span style=&quot;color: rgb(255, 153, 255); text-align: center;&quot;&gt;&amp;nbsp;&lt;span style=&quot;color: rgb(255, 153, 255); text-align: center;&quot;&gt;Product&lt;/span&gt;&lt;/span&gt;)" style="text;align=left;verticalAlign=top;spacingLeft=15;spacingRight=4;overflow=hidden;rotatable=0;points=[[0,0.5],[1,0.5]];portConstraint=eastwest;html=1;" parent="zkfFHV4jXpPFQw0GAbJ--0" vertex="1">
          <mxGeometry y="128" width="320" height="34" as="geometry" />
        </mxCell>
        <mxCell id="P2nM8D4QdgFcugDJESoO-30" value="" style="edgeStyle=orthogonalEdgeStyle;rounded=0;orthogonalLoop=1;jettySize=auto;html=1;" parent="WIyWlLk6GJQsqaUBKTNV-1" source="zrbItNrb6_JpAVsrPDAK-18" target="P2nM8D4QdgFcugDJESoO-29" edge="1">
          <mxGeometry relative="1" as="geometry">
            <Array as="points">
              <mxPoint x="1580" y="440" />
              <mxPoint x="1580" y="440" />
            </Array>
          </mxGeometry>
        </mxCell>
        <mxCell id="P2nM8D4QdgFcugDJESoO-31" value="Creates and uses&lt;div&gt;ProductViewModel&lt;/div&gt;" style="edgeLabel;html=1;align=center;verticalAlign=middle;resizable=0;points=[];" parent="P2nM8D4QdgFcugDJESoO-30" vertex="1" connectable="0">
          <mxGeometry x="-0.5667" y="-2" relative="1" as="geometry">
            <mxPoint x="2" y="17" as="offset" />
          </mxGeometry>
        </mxCell>
        <mxCell id="zrbItNrb6_JpAVsrPDAK-18" value="ProductViewModel(productRepository: &lt;font style=&quot;color: rgb(102, 255, 179);&quot;&gt;ProductRepository&lt;/font&gt;) : ViewModel()" style="swimlane;fontStyle=0;align=center;verticalAlign=top;childLayout=stackLayout;horizontal=1;startSize=40;horizontalStack=0;resizeParent=1;resizeLast=0;collapsible=1;marginBottom=0;rounded=0;shadow=0;strokeWidth=1;html=1;" parent="WIyWlLk6GJQsqaUBKTNV-1" vertex="1">
          <mxGeometry x="1360" y="40" width="440" height="360" as="geometry">
            <mxRectangle x="550" y="140" width="160" height="26" as="alternateBounds" />
          </mxGeometry>
        </mxCell>
        <mxCell id="zrbItNrb6_JpAVsrPDAK-19" value="productSerialNumberState : Int" style="text;align=left;verticalAlign=top;spacingLeft=15;spacingRight=4;overflow=hidden;rotatable=0;points=[[0,0.5],[1,0.5]];portConstraint=eastwest;fontColor=#FFFFFF;html=1;" parent="zrbItNrb6_JpAVsrPDAK-18" vertex="1">
          <mxGeometry y="40" width="440" height="34" as="geometry" />
        </mxCell>
        <mxCell id="zrbItNrb6_JpAVsrPDAK-20" value="productPriceState : Int" style="text;align=left;verticalAlign=top;spacingLeft=15;spacingRight=4;overflow=hidden;rotatable=0;points=[[0,0.5],[1,0.5]];portConstraint=eastwest;html=1;" parent="zrbItNrb6_JpAVsrPDAK-18" vertex="1">
          <mxGeometry y="74" width="440" height="34" as="geometry" />
        </mxCell>
        <mxCell id="zrbItNrb6_JpAVsrPDAK-21" value="getProducts : Flow&amp;lt;List&amp;lt;&amp;nbsp;&lt;span style=&quot;color: rgb(255, 153, 255); text-align: center;&quot;&gt;Product&lt;/span&gt;&amp;gt;&amp;gt;" style="text;align=left;verticalAlign=top;spacingLeft=15;spacingRight=4;overflow=hidden;rotatable=0;points=[[0,0.5],[1,0.5]];portConstraint=eastwest;html=1;" parent="zrbItNrb6_JpAVsrPDAK-18" vertex="1">
          <mxGeometry y="108" width="440" height="34" as="geometry" />
        </mxCell>
        <mxCell id="zrbItNrb6_JpAVsrPDAK-25" value="" style="line;strokeWidth=1;fillColor=none;align=left;verticalAlign=middle;spacingTop=-1;spacingLeft=3;spacingRight=3;rotatable=0;labelPosition=right;points=[];portConstraint=eastwest;strokeColor=inherit;" parent="zrbItNrb6_JpAVsrPDAK-18" vertex="1">
          <mxGeometry y="142" width="440" height="8" as="geometry" />
        </mxCell>
        <mxCell id="zrbItNrb6_JpAVsrPDAK-26" value="onProductSerialNumberChange(newSerialNumber : Int)" style="text;align=left;verticalAlign=top;spacingLeft=15;spacingRight=4;overflow=hidden;rotatable=0;points=[[0,0.5],[1,0.5]];portConstraint=eastwest;html=1;" parent="zrbItNrb6_JpAVsrPDAK-18" vertex="1">
          <mxGeometry y="150" width="440" height="34" as="geometry" />
        </mxCell>
        <mxCell id="zrbItNrb6_JpAVsrPDAK-27" value="onProductPriceChange(newPrice : Int)" style="text;align=left;verticalAlign=top;spacingLeft=15;spacingRight=4;overflow=hidden;rotatable=0;points=[[0,0.5],[1,0.5]];portConstraint=eastwest;html=1;" parent="zrbItNrb6_JpAVsrPDAK-18" vertex="1">
          <mxGeometry y="184" width="440" height="34" as="geometry" />
        </mxCell>
        <mxCell id="zrbItNrb6_JpAVsrPDAK-28" value="getProductById(id: Long) : Flow&amp;lt;&amp;nbsp;&lt;span style=&quot;color: rgb(255, 153, 255); text-align: center;&quot;&gt;Product&lt;/span&gt;&amp;gt; " style="text;align=left;verticalAlign=top;spacingLeft=15;spacingRight=4;overflow=hidden;rotatable=0;points=[[0,0.5],[1,0.5]];portConstraint=eastwest;html=1;" parent="zrbItNrb6_JpAVsrPDAK-18" vertex="1">
          <mxGeometry y="218" width="440" height="34" as="geometry" />
        </mxCell>
        <mxCell id="zrbItNrb6_JpAVsrPDAK-29" value="addProduct(productEntity : &amp;nbsp;&lt;span style=&quot;color: rgb(255, 153, 255); text-align: center;&quot;&gt;Product&lt;/span&gt;) " style="text;align=left;verticalAlign=top;spacingLeft=15;spacingRight=4;overflow=hidden;rotatable=0;points=[[0,0.5],[1,0.5]];portConstraint=eastwest;html=1;" parent="zrbItNrb6_JpAVsrPDAK-18" vertex="1">
          <mxGeometry y="252" width="440" height="34" as="geometry" />
        </mxCell>
        <mxCell id="zrbItNrb6_JpAVsrPDAK-31" value="updateProduct(productEntity : &amp;nbsp;&lt;span style=&quot;color: rgb(255, 153, 255); text-align: center;&quot;&gt;Product&lt;/span&gt;) " style="text;align=left;verticalAlign=top;spacingLeft=15;spacingRight=4;overflow=hidden;rotatable=0;points=[[0,0.5],[1,0.5]];portConstraint=eastwest;html=1;" parent="zrbItNrb6_JpAVsrPDAK-18" vertex="1">
          <mxGeometry y="286" width="440" height="34" as="geometry" />
        </mxCell>
        <mxCell id="zrbItNrb6_JpAVsrPDAK-30" value="deleteProduct(productEntity : &amp;nbsp;&lt;span style=&quot;color: rgb(255, 153, 255); text-align: center;&quot;&gt;Product&lt;/span&gt;) " style="text;align=left;verticalAlign=top;spacingLeft=15;spacingRight=4;overflow=hidden;rotatable=0;points=[[0,0.5],[1,0.5]];portConstraint=eastwest;html=1;" parent="zrbItNrb6_JpAVsrPDAK-18" vertex="1">
          <mxGeometry y="320" width="440" height="34" as="geometry" />
        </mxCell>
        <mxCell id="zrbItNrb6_JpAVsrPDAK-33" value="GraphApp : Application()" style="swimlane;fontStyle=0;align=center;verticalAlign=top;childLayout=stackLayout;horizontal=1;startSize=30;horizontalStack=0;resizeParent=1;resizeLast=0;collapsible=1;marginBottom=0;rounded=0;shadow=0;strokeWidth=1;html=1;" parent="WIyWlLk6GJQsqaUBKTNV-1" vertex="1">
          <mxGeometry x="1080" y="600" width="240" height="70" as="geometry">
            <mxRectangle x="550" y="140" width="160" height="26" as="alternateBounds" />
          </mxGeometry>
        </mxCell>
        <mxCell id="zrbItNrb6_JpAVsrPDAK-35" value="override onCreate()" style="text;align=left;verticalAlign=top;spacingLeft=15;spacingRight=4;overflow=hidden;rotatable=0;points=[[0,0.5],[1,0.5]];portConstraint=eastwest;" parent="zrbItNrb6_JpAVsrPDAK-33" vertex="1">
          <mxGeometry y="30" width="240" height="34" as="geometry" />
        </mxCell>
        <mxCell id="P2nM8D4QdgFcugDJESoO-24" style="edgeStyle=orthogonalEdgeStyle;rounded=0;orthogonalLoop=1;jettySize=auto;html=1;entryX=0.5;entryY=0;entryDx=0;entryDy=0;" parent="WIyWlLk6GJQsqaUBKTNV-1" source="zrbItNrb6_JpAVsrPDAK-38" target="zrbItNrb6_JpAVsrPDAK-33" edge="1">
          <mxGeometry relative="1" as="geometry">
            <Array as="points">
              <mxPoint x="1200" y="560" />
              <mxPoint x="1200" y="560" />
            </Array>
          </mxGeometry>
        </mxCell>
        <mxCell id="P2nM8D4QdgFcugDJESoO-28" value="Creates database" style="edgeLabel;html=1;align=center;verticalAlign=middle;resizable=0;points=[];" parent="P2nM8D4QdgFcugDJESoO-24" vertex="1" connectable="0">
          <mxGeometry x="-0.2608" y="-4" relative="1" as="geometry">
            <mxPoint x="4" y="5" as="offset" />
          </mxGeometry>
        </mxCell>
        <mxCell id="zrbItNrb6_JpAVsrPDAK-38" value="Graph" style="swimlane;fontStyle=0;align=center;verticalAlign=top;childLayout=stackLayout;horizontal=1;startSize=30;horizontalStack=0;resizeParent=1;resizeLast=0;collapsible=1;marginBottom=0;rounded=0;shadow=0;strokeWidth=1;html=1;" parent="WIyWlLk6GJQsqaUBKTNV-1" vertex="1">
          <mxGeometry x="1080" y="400" width="240" height="140" as="geometry">
            <mxRectangle x="550" y="140" width="160" height="26" as="alternateBounds" />
          </mxGeometry>
        </mxCell>
        <mxCell id="zrbItNrb6_JpAVsrPDAK-39" value="database :&lt;font style=&quot;color: rgb(255, 153, 153);&quot;&gt; AppDatabase&lt;/font&gt;" style="text;align=left;verticalAlign=top;spacingLeft=15;spacingRight=4;overflow=hidden;rotatable=0;points=[[0,0.5],[1,0.5]];portConstraint=eastwest;html=1;" parent="zrbItNrb6_JpAVsrPDAK-38" vertex="1">
          <mxGeometry y="30" width="240" height="34" as="geometry" />
        </mxCell>
        <mxCell id="zrbItNrb6_JpAVsrPDAK-40" value="productRepository : &lt;font style=&quot;color: rgb(102, 255, 179);&quot;&gt;ProductRepository&lt;/font&gt;" style="text;align=left;verticalAlign=top;spacingLeft=15;spacingRight=4;overflow=hidden;rotatable=0;points=[[0,0.5],[1,0.5]];portConstraint=eastwest;html=1;" parent="zrbItNrb6_JpAVsrPDAK-38" vertex="1">
          <mxGeometry y="64" width="240" height="34" as="geometry" />
        </mxCell>
        <mxCell id="zrbItNrb6_JpAVsrPDAK-41" value="" style="line;strokeWidth=1;fillColor=none;align=left;verticalAlign=middle;spacingTop=-1;spacingLeft=3;spacingRight=3;rotatable=0;labelPosition=right;points=[];portConstraint=eastwest;strokeColor=inherit;" parent="zrbItNrb6_JpAVsrPDAK-38" vertex="1">
          <mxGeometry y="98" width="240" height="8" as="geometry" />
        </mxCell>
        <mxCell id="zrbItNrb6_JpAVsrPDAK-43" value="provide(context : Context)" style="text;align=left;verticalAlign=top;spacingLeft=15;spacingRight=4;overflow=hidden;rotatable=0;points=[[0,0.5],[1,0.5]];portConstraint=eastwest;html=1;" parent="zrbItNrb6_JpAVsrPDAK-38" vertex="1">
          <mxGeometry y="106" width="240" height="34" as="geometry" />
        </mxCell>
        <mxCell id="P2nM8D4QdgFcugDJESoO-13" style="edgeStyle=orthogonalEdgeStyle;rounded=0;orthogonalLoop=1;jettySize=auto;html=1;exitX=1;exitY=0.75;exitDx=0;exitDy=0;" parent="WIyWlLk6GJQsqaUBKTNV-1" source="P2nM8D4QdgFcugDJESoO-1" edge="1">
          <mxGeometry relative="1" as="geometry">
            <mxPoint x="1000" y="202" as="targetPoint" />
            <Array as="points">
              <mxPoint x="920" y="360" />
              <mxPoint x="1000" y="360" />
              <mxPoint x="1000" y="202" />
            </Array>
          </mxGeometry>
        </mxCell>
        <mxCell id="P2nM8D4QdgFcugDJESoO-14" value="Defines entity tasked&lt;div&gt;with communicating with&amp;nbsp;&lt;/div&gt;&lt;div&gt;the database&lt;/div&gt;" style="edgeLabel;html=1;align=center;verticalAlign=middle;resizable=0;points=[];" parent="P2nM8D4QdgFcugDJESoO-13" vertex="1" connectable="0">
          <mxGeometry x="0.4238" relative="1" as="geometry">
            <mxPoint y="-54" as="offset" />
          </mxGeometry>
        </mxCell>
        <mxCell id="P2nM8D4QdgFcugDJESoO-1" value="&lt;span style=&quot;font-size: 17px; font-weight: 400;&quot;&gt;Define database and entities&lt;/span&gt;" style="swimlane;whiteSpace=wrap;html=1;startSize=40;" parent="WIyWlLk6GJQsqaUBKTNV-1" vertex="1">
          <mxGeometry x="240" y="40" width="680" height="620" as="geometry" />
        </mxCell>
        <mxCell id="P2nM8D4QdgFcugDJESoO-15" style="edgeStyle=orthogonalEdgeStyle;rounded=0;orthogonalLoop=1;jettySize=auto;html=1;" parent="P2nM8D4QdgFcugDJESoO-1" source="zrbItNrb6_JpAVsrPDAK-9" target="zkfFHV4jXpPFQw0GAbJ--13" edge="1">
          <mxGeometry relative="1" as="geometry">
            <mxPoint x="180" y="410" as="targetPoint" />
            <Array as="points">
              <mxPoint x="180" y="400" />
              <mxPoint x="180" y="400" />
            </Array>
          </mxGeometry>
        </mxCell>
        <mxCell id="P2nM8D4QdgFcugDJESoO-17" value="Tell the database what&amp;nbsp;&lt;div&gt;tables and entities to use&lt;/div&gt;" style="edgeLabel;html=1;align=center;verticalAlign=middle;resizable=0;points=[];" parent="P2nM8D4QdgFcugDJESoO-15" vertex="1" connectable="0">
          <mxGeometry x="-0.1608" y="-3" relative="1" as="geometry">
            <mxPoint x="3" as="offset" />
          </mxGeometry>
        </mxCell>
        <mxCell id="zrbItNrb6_JpAVsrPDAK-9" value="&lt;font style=&quot;color: rgb(255, 153, 255);&quot;&gt;&amp;nbsp;&lt;span style=&quot;color: rgb(255, 153, 255); text-align: center;&quot;&gt;Product&lt;/span&gt;&lt;/font&gt;" style="swimlane;fontStyle=0;align=center;verticalAlign=top;childLayout=stackLayout;horizontal=1;startSize=30;horizontalStack=0;resizeParent=1;resizeLast=0;collapsible=1;marginBottom=0;rounded=0;shadow=0;strokeWidth=1;html=1;" parent="P2nM8D4QdgFcugDJESoO-1" vertex="1">
          <mxGeometry x="40" y="160" width="280" height="210" as="geometry">
            <mxRectangle x="550" y="140" width="160" height="26" as="alternateBounds" />
          </mxGeometry>
        </mxCell>
        <mxCell id="zrbItNrb6_JpAVsrPDAK-17" value="&lt;span style=&quot;font-family: Helvetica; font-size: 12px; font-style: normal; font-variant-ligatures: normal; font-variant-caps: normal; font-weight: 400; letter-spacing: normal; orphans: 2; text-align: center; text-indent: 0px; text-transform: none; widows: 2; word-spacing: 0px; -webkit-text-stroke-width: 0px; text-decoration-thickness: initial; text-decoration-style: initial; text-decoration-color: initial; float: none; display: inline !important;&quot;&gt;&lt;font style=&quot;color: rgb(255, 217, 102);&quot;&gt;@Entity&lt;/font&gt;&lt;/span&gt;&lt;span style=&quot;color: rgb(240, 240, 240); font-family: Helvetica; font-size: 12px; font-style: normal; font-variant-ligatures: normal; font-variant-caps: normal; font-weight: 400; letter-spacing: normal; orphans: 2; text-align: center; text-indent: 0px; text-transform: none; widows: 2; word-spacing: 0px; -webkit-text-stroke-width: 0px; background-color: rgb(27, 29, 30); text-decoration-thickness: initial; text-decoration-style: initial; text-decoration-color: initial; float: none; display: inline !important;&quot;&gt;(tableName=&quot;product-table&quot;)&lt;/span&gt;" style="text;whiteSpace=wrap;html=1;spacingLeft=15;" parent="zrbItNrb6_JpAVsrPDAK-9" vertex="1">
          <mxGeometry y="30" width="280" height="30" as="geometry" />
        </mxCell>
        <mxCell id="zrbItNrb6_JpAVsrPDAK-10" value="&lt;font style=&quot;color: rgb(255, 217, 102);&quot;&gt;@PrimaryKey&lt;/font&gt;&lt;br&gt;id: Long" style="text;align=left;verticalAlign=top;spacingLeft=15;spacingRight=4;overflow=hidden;rotatable=0;points=[[0,0.5],[1,0.5]];portConstraint=eastwest;html=1;" parent="zrbItNrb6_JpAVsrPDAK-9" vertex="1">
          <mxGeometry y="60" width="280" height="50" as="geometry" />
        </mxCell>
        <mxCell id="zrbItNrb6_JpAVsrPDAK-15" value="&lt;font style=&quot;color: rgb(255, 217, 102);&quot;&gt;@ColumnInfo&lt;/font&gt;(name=&quot;serial-number&quot;)&lt;br&gt;serialNumber : Int" style="text;align=left;verticalAlign=top;spacingLeft=15;spacingRight=4;overflow=hidden;rotatable=0;points=[[0,0.5],[1,0.5]];portConstraint=eastwest;html=1;" parent="zrbItNrb6_JpAVsrPDAK-9" vertex="1">
          <mxGeometry y="110" width="280" height="50" as="geometry" />
        </mxCell>
        <mxCell id="zrbItNrb6_JpAVsrPDAK-16" value="&lt;font style=&quot;color: rgb(255, 217, 102);&quot;&gt;@ColumnInfo&lt;/font&gt;(name=&quot;price&quot;)&lt;br&gt;price : Int" style="text;align=left;verticalAlign=top;spacingLeft=15;spacingRight=4;overflow=hidden;rotatable=0;points=[[0,0.5],[1,0.5]];portConstraint=eastwest;html=1;" parent="zrbItNrb6_JpAVsrPDAK-9" vertex="1">
          <mxGeometry y="160" width="280" height="50" as="geometry" />
        </mxCell>
        <mxCell id="P2nM8D4QdgFcugDJESoO-16" style="edgeStyle=orthogonalEdgeStyle;rounded=0;orthogonalLoop=1;jettySize=auto;html=1;" parent="P2nM8D4QdgFcugDJESoO-1" source="zkfFHV4jXpPFQw0GAbJ--17" target="zkfFHV4jXpPFQw0GAbJ--6" edge="1">
          <mxGeometry relative="1" as="geometry">
            <mxPoint x="501" y="410" as="targetPoint" />
            <Array as="points">
              <mxPoint x="501" y="400" />
              <mxPoint x="501" y="400" />
            </Array>
          </mxGeometry>
        </mxCell>
        <mxCell id="P2nM8D4QdgFcugDJESoO-18" value="Tell database what&amp;nbsp;&lt;div&gt;DAOs to use&lt;/div&gt;" style="edgeLabel;html=1;align=center;verticalAlign=middle;resizable=0;points=[];" parent="P2nM8D4QdgFcugDJESoO-16" vertex="1" connectable="0">
          <mxGeometry x="-0.1274" relative="1" as="geometry">
            <mxPoint as="offset" />
          </mxGeometry>
        </mxCell>
        <mxCell id="zkfFHV4jXpPFQw0GAbJ--17" value="&amp;lt;&amp;lt;Abstract&amp;gt;&amp;gt;&lt;br&gt;&lt;font color=&quot;#66b2ff&quot;&gt;&lt;font color=&quot;#66b2ff&quot;&gt;ProductDao&lt;/font&gt;&lt;/font&gt;" style="swimlane;fontStyle=0;align=center;verticalAlign=top;childLayout=stackLayout;horizontal=1;startSize=40;horizontalStack=0;resizeParent=1;resizeLast=0;collapsible=1;marginBottom=0;rounded=0;shadow=0;strokeWidth=1;html=1;" parent="P2nM8D4QdgFcugDJESoO-1" vertex="1">
          <mxGeometry x="361" y="80" width="280" height="290" as="geometry">
            <mxRectangle x="550" y="140" width="160" height="26" as="alternateBounds" />
          </mxGeometry>
        </mxCell>
        <mxCell id="zrbItNrb6_JpAVsrPDAK-4" value="&lt;font style=&quot;color: rgb(255, 217, 102);&quot;&gt;@Query&lt;/font&gt;&lt;br&gt;getAllProducts() : Flow&amp;lt;List&amp;lt;&lt;span style=&quot;color: rgb(255, 153, 255); text-align: center;&quot;&gt;&amp;nbsp;&lt;span style=&quot;color: rgb(255, 153, 255); text-align: center;&quot;&gt;Product&lt;/span&gt;&lt;/span&gt;&amp;gt;&amp;gt;" style="text;align=left;verticalAlign=top;spacingLeft=15;spacingRight=4;overflow=hidden;rotatable=0;points=[[0,0.5],[1,0.5]];portConstraint=eastwest;html=1;" parent="zkfFHV4jXpPFQw0GAbJ--17" vertex="1">
          <mxGeometry y="40" width="280" height="50" as="geometry" />
        </mxCell>
        <mxCell id="zrbItNrb6_JpAVsrPDAK-7" value="&lt;font style=&quot;color: rgb(255, 217, 102);&quot;&gt;@Query&lt;/font&gt;&lt;br&gt;getProductById(id: Long) : Flow&amp;lt;&lt;span style=&quot;color: rgb(255, 153, 255); text-align: center;&quot;&gt;&amp;nbsp;&lt;span style=&quot;color: rgb(255, 153, 255); text-align: center;&quot;&gt;Product&lt;/span&gt;&lt;/span&gt;&amp;gt;&amp;nbsp;" style="text;align=left;verticalAlign=top;spacingLeft=15;spacingRight=4;overflow=hidden;rotatable=0;points=[[0,0.5],[1,0.5]];portConstraint=eastwest;html=1;" parent="zkfFHV4jXpPFQw0GAbJ--17" vertex="1">
          <mxGeometry y="90" width="280" height="50" as="geometry" />
        </mxCell>
        <mxCell id="zkfFHV4jXpPFQw0GAbJ--18" value="&lt;font style=&quot;color: rgb(255, 217, 102);&quot;&gt;@Insert&lt;/font&gt;&lt;br&gt;addProduct(productEntity :&amp;nbsp;&lt;span style=&quot;color: rgb(255, 153, 255); text-align: center; text-wrap-mode: nowrap;&quot;&gt;&amp;nbsp;&lt;span style=&quot;color: rgb(255, 153, 255); text-align: center;&quot;&gt;Product&lt;/span&gt;&lt;/span&gt;)&amp;nbsp;" style="text;align=left;verticalAlign=top;spacingLeft=15;spacingRight=4;overflow=hidden;rotatable=0;points=[[0,0.5],[1,0.5]];portConstraint=eastwest;whiteSpace=wrap;html=1;" parent="zkfFHV4jXpPFQw0GAbJ--17" vertex="1">
          <mxGeometry y="140" width="280" height="50" as="geometry" />
        </mxCell>
        <mxCell id="zrbItNrb6_JpAVsrPDAK-5" value="&lt;font style=&quot;color: rgb(255, 217, 102);&quot;&gt;@Update&lt;/font&gt;&lt;br&gt;updateProduct(productEntity :&amp;nbsp;&lt;span style=&quot;color: rgb(255, 153, 255); text-align: center;&quot;&gt;&amp;nbsp;&lt;span style=&quot;color: rgb(255, 153, 255); text-align: center;&quot;&gt;Product&lt;/span&gt;&lt;/span&gt;)&amp;nbsp;" style="text;align=left;verticalAlign=top;spacingLeft=15;spacingRight=4;overflow=hidden;rotatable=0;points=[[0,0.5],[1,0.5]];portConstraint=eastwest;html=1;" parent="zkfFHV4jXpPFQw0GAbJ--17" vertex="1">
          <mxGeometry y="190" width="280" height="50" as="geometry" />
        </mxCell>
        <mxCell id="zrbItNrb6_JpAVsrPDAK-6" value="&lt;font style=&quot;color: rgb(255, 217, 102);&quot;&gt;@Delete&lt;/font&gt;&lt;br&gt;deleteProduct(productEntity : &amp;nbsp;&lt;span style=&quot;color: rgb(255, 153, 255); text-align: center;&quot;&gt;Product&lt;/span&gt;)&amp;nbsp;" style="text;align=left;verticalAlign=top;spacingLeft=15;spacingRight=4;overflow=hidden;rotatable=0;points=[[0,0.5],[1,0.5]];portConstraint=eastwest;html=1;" parent="zkfFHV4jXpPFQw0GAbJ--17" vertex="1">
          <mxGeometry y="240" width="280" height="50" as="geometry" />
        </mxCell>
        <mxCell id="P2nM8D4QdgFcugDJESoO-9" style="edgeStyle=orthogonalEdgeStyle;rounded=0;orthogonalLoop=1;jettySize=auto;html=1;exitX=0.75;exitY=0;exitDx=0;exitDy=0;entryX=0.006;entryY=0.073;entryDx=0;entryDy=0;entryPerimeter=0;" parent="P2nM8D4QdgFcugDJESoO-1" source="zrbItNrb6_JpAVsrPDAK-9" target="zkfFHV4jXpPFQw0GAbJ--17" edge="1">
          <mxGeometry relative="1" as="geometry" />
        </mxCell>
        <mxCell id="P2nM8D4QdgFcugDJESoO-10" value="Define queries&lt;div&gt;and commands&lt;/div&gt;" style="edgeLabel;html=1;align=center;verticalAlign=middle;resizable=0;points=[];" parent="P2nM8D4QdgFcugDJESoO-9" vertex="1" connectable="0">
          <mxGeometry x="-0.5629" y="1" relative="1" as="geometry">
            <mxPoint y="7" as="offset" />
          </mxGeometry>
        </mxCell>
        <mxCell id="zkfFHV4jXpPFQw0GAbJ--13" value="&lt;font style=&quot;color: rgb(255, 217, 102);&quot;&gt;@Database&lt;/font&gt;" style="swimlane;fontStyle=0;align=center;verticalAlign=top;childLayout=stackLayout;horizontal=1;startSize=26;horizontalStack=0;resizeParent=1;resizeLast=0;collapsible=1;marginBottom=0;rounded=0;shadow=0;strokeWidth=1;html=1;" parent="P2nM8D4QdgFcugDJESoO-1" vertex="1">
          <mxGeometry x="100" y="449.99999999999994" width="160" height="133.32" as="geometry">
            <mxRectangle x="340" y="380" width="170" height="26" as="alternateBounds" />
          </mxGeometry>
        </mxCell>
        <mxCell id="zkfFHV4jXpPFQw0GAbJ--14" value="entities: []" style="text;align=left;verticalAlign=top;spacingLeft=15;spacingRight=4;overflow=hidden;rotatable=0;points=[[0,0.5],[1,0.5]];portConstraint=eastwest;html=1;" parent="zkfFHV4jXpPFQw0GAbJ--13" vertex="1">
          <mxGeometry y="26" width="160" height="34" as="geometry" />
        </mxCell>
        <mxCell id="zrbItNrb6_JpAVsrPDAK-2" value="exportSchema: Bool" style="text;align=left;verticalAlign=top;spacingLeft=15;spacingRight=4;overflow=hidden;rotatable=0;points=[[0,0.5],[1,0.5]];portConstraint=eastwest;html=1;" parent="zkfFHV4jXpPFQw0GAbJ--13" vertex="1">
          <mxGeometry y="60" width="160" height="34" as="geometry" />
        </mxCell>
        <mxCell id="zrbItNrb6_JpAVsrPDAK-1" value="version: Int" style="text;align=left;verticalAlign=top;spacingLeft=15;spacingRight=4;overflow=hidden;rotatable=0;points=[[0,0.5],[1,0.5]];portConstraint=eastwest;html=1;" parent="zkfFHV4jXpPFQw0GAbJ--13" vertex="1">
          <mxGeometry y="94" width="160" height="34" as="geometry" />
        </mxCell>
        <mxCell id="zkfFHV4jXpPFQw0GAbJ--6" value="&amp;lt;&amp;lt;Abstract&amp;gt;&amp;gt;&lt;br&gt;&lt;font style=&quot;color: rgb(255, 153, 153);&quot;&gt;AppDatabase&lt;/font&gt;: RoomDataBase" style="swimlane;fontStyle=0;align=center;verticalAlign=top;childLayout=stackLayout;horizontal=1;startSize=40;horizontalStack=0;resizeParent=1;resizeLast=0;collapsible=1;marginBottom=0;rounded=0;shadow=0;strokeWidth=1;html=1;" parent="P2nM8D4QdgFcugDJESoO-1" vertex="1">
          <mxGeometry x="396" y="450.00000000000006" width="210" height="81.00374531835206" as="geometry">
            <mxRectangle x="130" y="380" width="160" height="26" as="alternateBounds" />
          </mxGeometry>
        </mxCell>
        <mxCell id="zkfFHV4jXpPFQw0GAbJ--7" value="productDao() : &lt;font color=&quot;#66b2ff&quot;&gt;ProductDao&lt;/font&gt;" style="text;align=left;verticalAlign=top;spacingLeft=15;spacingRight=4;overflow=hidden;rotatable=0;points=[[0,0.5],[1,0.5]];portConstraint=eastwest;html=1;" parent="zkfFHV4jXpPFQw0GAbJ--6" vertex="1">
          <mxGeometry y="40" width="210" height="41.00374531835206" as="geometry" />
        </mxCell>
        <mxCell id="P2nM8D4QdgFcugDJESoO-4" value="" style="endArrow=classic;html=1;rounded=0;entryX=0.25;entryY=0;entryDx=0;entryDy=0;" parent="WIyWlLk6GJQsqaUBKTNV-1" target="zrbItNrb6_JpAVsrPDAK-9" edge="1">
          <mxGeometry relative="1" as="geometry">
            <mxPoint x="350" y="90" as="sourcePoint" />
            <mxPoint x="998" y="190" as="targetPoint" />
          </mxGeometry>
        </mxCell>
        <mxCell id="P2nM8D4QdgFcugDJESoO-5" value="Define table and entity" style="edgeLabel;resizable=0;html=1;;align=center;verticalAlign=middle;" parent="P2nM8D4QdgFcugDJESoO-4" connectable="0" vertex="1">
          <mxGeometry relative="1" as="geometry">
            <mxPoint y="-20" as="offset" />
          </mxGeometry>
        </mxCell>
        <mxCell id="P2nM8D4QdgFcugDJESoO-26" style="edgeStyle=orthogonalEdgeStyle;rounded=0;orthogonalLoop=1;jettySize=auto;html=1;" parent="WIyWlLk6GJQsqaUBKTNV-1" source="zkfFHV4jXpPFQw0GAbJ--5" target="zrbItNrb6_JpAVsrPDAK-18" edge="1">
          <mxGeometry relative="1" as="geometry">
            <Array as="points">
              <mxPoint x="1240" y="320" />
            </Array>
          </mxGeometry>
        </mxCell>
        <mxCell id="P2nM8D4QdgFcugDJESoO-27" value="Defines ViewModel - Holder of&lt;div&gt;business logic and&lt;/div&gt;&lt;div&gt;holder of screen&amp;nbsp;&lt;/div&gt;&lt;div&gt;level state&lt;/div&gt;" style="edgeLabel;html=1;align=center;verticalAlign=middle;resizable=0;points=[];" parent="P2nM8D4QdgFcugDJESoO-26" vertex="1" connectable="0">
          <mxGeometry x="-0.4528" y="-3" relative="1" as="geometry">
            <mxPoint x="3" y="-2" as="offset" />
          </mxGeometry>
        </mxCell>
        <mxCell id="P2nM8D4QdgFcugDJESoO-29" value="&lt;div style=&quot;color: rgb(188, 190, 196);&quot;&gt;&lt;pre style=&quot;font-family: &amp;quot;JetBrains Mono&amp;quot;, monospace;&quot;&gt;&lt;div style=&quot;&quot;&gt;&lt;pre style=&quot;font-family: &amp;quot;JetBrains Mono&amp;quot;, monospace;&quot;&gt;&lt;div style=&quot;&quot;&gt;&lt;pre style=&quot;font-family: &amp;quot;JetBrains Mono&amp;quot;, monospace;&quot;&gt;&lt;span style=&quot;color: rgb(122, 126, 133);&quot;&gt;// StoreListApp.kt&lt;/span&gt;&lt;/pre&gt;&lt;/div&gt;&lt;/pre&gt;&lt;pre style=&quot;font-family: &amp;quot;JetBrains Mono&amp;quot;, monospace;&quot;&gt;&lt;span&gt;&lt;span style=&quot;color: rgb(207, 142, 109);&quot;&gt;val &lt;/span&gt;pViewModel: ProductViewModel = &lt;span style=&quot;color: rgb(107, 179, 138);&quot;&gt;viewModel&lt;/span&gt;()&lt;/span&gt;&lt;/pre&gt;&lt;/div&gt;&lt;/pre&gt;&lt;pre style=&quot;font-family: &amp;quot;JetBrains Mono&amp;quot;, monospace;&quot;&gt;&lt;div style=&quot;line-height: 30%;&quot;&gt;&lt;pre style=&quot;font-family: &amp;quot;JetBrains Mono&amp;quot;, monospace;&quot;&gt;&lt;span&gt;&lt;span style=&quot;color:#cf8e6d;&quot;&gt;val &lt;/span&gt;products = pViewModel.&lt;span style=&quot;color:#c77dbb;&quot;&gt;getProducts&lt;/span&gt;.&lt;span style=&quot;color:#6bb38a;&quot;&gt;collectAsState&lt;/span&gt;(&lt;/span&gt;&lt;/pre&gt;&lt;pre style=&quot;font-family: &amp;quot;JetBrains Mono&amp;quot;, monospace;&quot;&gt;&lt;span&gt;&lt;span style=&quot;color:#56c1d6;&quot;&gt;initial = &lt;/span&gt;&lt;span style=&quot;font-style:italic;&quot;&gt;listOf&lt;/span&gt;&amp;lt;Product&amp;gt;()&lt;/span&gt;&lt;/pre&gt;&lt;pre style=&quot;font-family: &amp;quot;JetBrains Mono&amp;quot;, monospace;&quot;&gt;&lt;span&gt;).&lt;span style=&quot;color: rgb(199, 125, 187);&quot;&gt;value&lt;/span&gt;&lt;/span&gt;&lt;/pre&gt;&lt;/div&gt;&lt;/pre&gt;&lt;/div&gt;" style="whiteSpace=wrap;html=1;verticalAlign=top;fontStyle=0;startSize=40;horizontal=1;rounded=0;shadow=0;strokeWidth=1;align=left;spacingTop=0;spacing=0;spacingLeft=15;" parent="WIyWlLk6GJQsqaUBKTNV-1" vertex="1">
          <mxGeometry x="1360" y="480" width="440" height="160" as="geometry" />
        </mxCell>
      </root>
    </mxGraphModel>
  </diagram>
  <diagram name="Page 2" id="E8OdUuZl83t9Wxk6EO05">
    <mxGraphModel dx="3281" dy="960" grid="1" gridSize="10" guides="1" tooltips="1" connect="1" arrows="1" fold="1" page="1" pageScale="1" pageWidth="827" pageHeight="1169" math="0" shadow="0">
      <root>
        <mxCell id="nMxPNi23z6h84rDVdCxf-0" />
        <mxCell id="nMxPNi23z6h84rDVdCxf-1" parent="nMxPNi23z6h84rDVdCxf-0" />
        <mxCell id="nMxPNi23z6h84rDVdCxf-4" value="&lt;font style=&quot;color: rgb(102, 255, 179);&quot;&gt;ProductRepository&lt;/font&gt;(productDao: &lt;font color=&quot;#66b2ff&quot;&gt;&lt;font color=&quot;#66b2ff&quot;&gt;ProductDao&lt;/font&gt;&lt;/font&gt;)" style="swimlane;fontStyle=0;align=center;verticalAlign=top;childLayout=stackLayout;horizontal=1;startSize=26;horizontalStack=0;resizeParent=1;resizeLast=0;collapsible=1;marginBottom=0;rounded=0;shadow=0;strokeWidth=1;spacingLeft=19;swimlaneFillColor=none;html=1;" vertex="1" parent="nMxPNi23z6h84rDVdCxf-1">
          <mxGeometry x="-360" y="1600" width="320" height="162" as="geometry">
            <mxRectangle x="230" y="140" width="160" height="26" as="alternateBounds" />
          </mxGeometry>
        </mxCell>
        <mxCell id="nMxPNi23z6h84rDVdCxf-5" value="getProducts() : Flow&amp;lt;List&amp;lt;&lt;span style=&quot;color: rgb(255, 153, 255); text-align: center;&quot;&gt;&amp;nbsp;&lt;span style=&quot;color: rgb(255, 153, 255); text-align: center;&quot;&gt;Product&lt;/span&gt;&lt;/span&gt;&amp;gt;&amp;gt;" style="text;align=left;verticalAlign=top;spacingLeft=15;spacingRight=4;overflow=hidden;rotatable=0;points=[[0,0.5],[1,0.5]];portConstraint=eastwest;html=1;" vertex="1" parent="nMxPNi23z6h84rDVdCxf-4">
          <mxGeometry y="26" width="320" height="34" as="geometry" />
        </mxCell>
        <mxCell id="nMxPNi23z6h84rDVdCxf-6" value="addProduct(product : &amp;nbsp;&lt;span style=&quot;color: rgb(255, 153, 255); text-align: center;&quot;&gt;Product&lt;/span&gt;) : Long (Returns ID)" style="text;align=left;verticalAlign=top;spacingLeft=15;spacingRight=4;overflow=hidden;rotatable=0;points=[[0,0.5],[1,0.5]];portConstraint=eastwest;rounded=0;shadow=0;html=1;" vertex="1" parent="nMxPNi23z6h84rDVdCxf-4">
          <mxGeometry y="60" width="320" height="34" as="geometry" />
        </mxCell>
        <mxCell id="nMxPNi23z6h84rDVdCxf-7" value="updateProduct(product :&amp;nbsp;&lt;span style=&quot;color: rgb(255, 153, 255); text-align: center;&quot;&gt;&amp;nbsp;&lt;span style=&quot;color: rgb(255, 153, 255); text-align: center;&quot;&gt;Product&lt;/span&gt;&lt;/span&gt;)" style="text;align=left;verticalAlign=top;spacingLeft=15;spacingRight=4;overflow=hidden;rotatable=0;points=[[0,0.5],[1,0.5]];portConstraint=eastwest;rounded=0;shadow=0;html=1;" vertex="1" parent="nMxPNi23z6h84rDVdCxf-4">
          <mxGeometry y="94" width="320" height="34" as="geometry" />
        </mxCell>
        <mxCell id="nMxPNi23z6h84rDVdCxf-8" value="deleteProduct(product :&amp;nbsp;&lt;span style=&quot;color: rgb(255, 153, 255); text-align: center;&quot;&gt;&amp;nbsp;&lt;span style=&quot;color: rgb(255, 153, 255); text-align: center;&quot;&gt;Product&lt;/span&gt;&lt;/span&gt;)" style="text;align=left;verticalAlign=top;spacingLeft=15;spacingRight=4;overflow=hidden;rotatable=0;points=[[0,0.5],[1,0.5]];portConstraint=eastwest;html=1;" vertex="1" parent="nMxPNi23z6h84rDVdCxf-4">
          <mxGeometry y="128" width="320" height="34" as="geometry" />
        </mxCell>
        <mxCell id="nMxPNi23z6h84rDVdCxf-22" value="GraphApp : Application()" style="swimlane;fontStyle=0;align=center;verticalAlign=top;childLayout=stackLayout;horizontal=1;startSize=30;horizontalStack=0;resizeParent=1;resizeLast=0;collapsible=1;marginBottom=0;rounded=0;shadow=0;strokeWidth=1;html=1;" vertex="1" parent="nMxPNi23z6h84rDVdCxf-1">
          <mxGeometry x="-710" y="1720" width="240" height="70" as="geometry">
            <mxRectangle x="550" y="140" width="160" height="26" as="alternateBounds" />
          </mxGeometry>
        </mxCell>
        <mxCell id="nMxPNi23z6h84rDVdCxf-23" value="override onCreate()" style="text;align=left;verticalAlign=top;spacingLeft=15;spacingRight=4;overflow=hidden;rotatable=0;points=[[0,0.5],[1,0.5]];portConstraint=eastwest;" vertex="1" parent="nMxPNi23z6h84rDVdCxf-22">
          <mxGeometry y="30" width="240" height="34" as="geometry" />
        </mxCell>
        <mxCell id="nMxPNi23z6h84rDVdCxf-24" style="edgeStyle=orthogonalEdgeStyle;rounded=0;orthogonalLoop=1;jettySize=auto;html=1;entryX=0.5;entryY=0;entryDx=0;entryDy=0;" edge="1" parent="nMxPNi23z6h84rDVdCxf-1" source="nMxPNi23z6h84rDVdCxf-26" target="nMxPNi23z6h84rDVdCxf-22">
          <mxGeometry relative="1" as="geometry">
            <Array as="points">
              <mxPoint x="-590" y="1644" />
              <mxPoint x="-590" y="1644" />
            </Array>
          </mxGeometry>
        </mxCell>
        <mxCell id="nMxPNi23z6h84rDVdCxf-25" value="Creates database" style="edgeLabel;html=1;align=center;verticalAlign=middle;resizable=0;points=[];" vertex="1" connectable="0" parent="nMxPNi23z6h84rDVdCxf-24">
          <mxGeometry x="-0.2608" y="-4" relative="1" as="geometry">
            <mxPoint x="4" y="5" as="offset" />
          </mxGeometry>
        </mxCell>
        <mxCell id="nMxPNi23z6h84rDVdCxf-26" value="Graph" style="swimlane;fontStyle=0;align=center;verticalAlign=top;childLayout=stackLayout;horizontal=1;startSize=30;horizontalStack=0;resizeParent=1;resizeLast=0;collapsible=1;marginBottom=0;rounded=0;shadow=0;strokeWidth=1;html=1;" vertex="1" parent="nMxPNi23z6h84rDVdCxf-1">
          <mxGeometry x="-710" y="1480" width="240" height="156" as="geometry">
            <mxRectangle x="550" y="140" width="160" height="26" as="alternateBounds" />
          </mxGeometry>
        </mxCell>
        <mxCell id="nMxPNi23z6h84rDVdCxf-27" value="database :&lt;font style=&quot;color: rgb(255, 153, 153);&quot;&gt; AppDatabase&lt;/font&gt;" style="text;align=left;verticalAlign=top;spacingLeft=15;spacingRight=4;overflow=hidden;rotatable=0;points=[[0,0.5],[1,0.5]];portConstraint=eastwest;html=1;" vertex="1" parent="nMxPNi23z6h84rDVdCxf-26">
          <mxGeometry y="30" width="240" height="34" as="geometry" />
        </mxCell>
        <mxCell id="nMxPNi23z6h84rDVdCxf-28" value="productRepository : &lt;font style=&quot;color: rgb(102, 255, 179);&quot;&gt;ProductRepository&lt;/font&gt;" style="text;align=left;verticalAlign=top;spacingLeft=15;spacingRight=4;overflow=hidden;rotatable=0;points=[[0,0.5],[1,0.5]];portConstraint=eastwest;html=1;" vertex="1" parent="nMxPNi23z6h84rDVdCxf-26">
          <mxGeometry y="64" width="240" height="34" as="geometry" />
        </mxCell>
        <mxCell id="nMxPNi23z6h84rDVdCxf-29" value="" style="line;strokeWidth=1;fillColor=none;align=left;verticalAlign=middle;spacingTop=-1;spacingLeft=3;spacingRight=3;rotatable=0;labelPosition=right;points=[];portConstraint=eastwest;strokeColor=inherit;" vertex="1" parent="nMxPNi23z6h84rDVdCxf-26">
          <mxGeometry y="98" width="240" height="8" as="geometry" />
        </mxCell>
        <mxCell id="nMxPNi23z6h84rDVdCxf-30" value="provide(context : Context)" style="text;align=left;verticalAlign=top;spacingLeft=15;spacingRight=4;overflow=hidden;rotatable=0;points=[[0,0.5],[1,0.5]];portConstraint=eastwest;html=1;" vertex="1" parent="nMxPNi23z6h84rDVdCxf-26">
          <mxGeometry y="106" width="240" height="24" as="geometry" />
        </mxCell>
        <mxCell id="xdBG03dk_vRxA38id0hs-59" style="edgeStyle=orthogonalEdgeStyle;rounded=0;orthogonalLoop=1;jettySize=auto;html=1;entryX=0.518;entryY=-0.007;entryDx=0;entryDy=0;entryPerimeter=0;" edge="1" parent="nMxPNi23z6h84rDVdCxf-1" target="xdBG03dk_vRxA38id0hs-69">
          <mxGeometry relative="1" as="geometry">
            <mxPoint x="58" y="1400" as="sourcePoint" />
            <Array as="points">
              <mxPoint x="56" y="1400" />
            </Array>
          </mxGeometry>
        </mxCell>
        <mxCell id="nMxPNi23z6h84rDVdCxf-33" value="&lt;span style=&quot;font-size: 17px; font-weight: 400;&quot;&gt;Define database&lt;/span&gt;" style="swimlane;whiteSpace=wrap;html=1;startSize=40;" vertex="1" parent="nMxPNi23z6h84rDVdCxf-1">
          <mxGeometry x="-880" y="40" width="1600" height="1360" as="geometry" />
        </mxCell>
        <mxCell id="nMxPNi23z6h84rDVdCxf-43" value="&amp;lt;&amp;lt;Interface&amp;gt;&amp;gt;&lt;br&gt;&lt;font color=&quot;#66b2ff&quot;&gt;&lt;font color=&quot;#66b2ff&quot;&gt;ProductDao&lt;/font&gt;&lt;/font&gt;" style="swimlane;fontStyle=0;align=center;verticalAlign=top;childLayout=stackLayout;horizontal=1;startSize=40;horizontalStack=0;resizeParent=1;resizeLast=0;collapsible=1;marginBottom=0;rounded=0;shadow=0;strokeWidth=1;html=1;" vertex="1" parent="nMxPNi23z6h84rDVdCxf-33">
          <mxGeometry x="220" y="560" width="364" height="320" as="geometry">
            <mxRectangle x="550" y="140" width="160" height="26" as="alternateBounds" />
          </mxGeometry>
        </mxCell>
        <mxCell id="nMxPNi23z6h84rDVdCxf-44" value="&lt;font style=&quot;color: rgb(255, 217, 102);&quot;&gt;@Query (&lt;span style=&quot;font-family: &amp;quot;JetBrains Mono&amp;quot;, monospace; background-color: rgb(30, 31, 34); color: rgb(106, 171, 115);&quot;&gt;&quot;&lt;/span&gt;&lt;span style=&quot;font-family: &amp;quot;JetBrains Mono&amp;quot;, monospace; color: rgb(106, 171, 115); background-color: rgb(41, 60, 64);&quot;&gt;Select * from `product-table`&lt;/span&gt;&lt;span style=&quot;font-family: &amp;quot;JetBrains Mono&amp;quot;, monospace; background-color: rgb(30, 31, 34); color: rgb(106, 171, 115);&quot;&gt;&quot;&lt;/span&gt;&lt;span style=&quot;background-color: transparent;&quot;&gt;)&lt;/span&gt;&lt;br&gt;&lt;/font&gt;getAllProducts() : Flow&amp;lt;List&amp;lt;&lt;span style=&quot;color: rgb(255, 153, 255); text-align: center;&quot;&gt;&amp;nbsp;&lt;span style=&quot;color: rgb(255, 153, 255); text-align: center;&quot;&gt;Product&lt;/span&gt;&lt;/span&gt;&amp;gt;&amp;gt;" style="text;align=left;verticalAlign=top;spacingLeft=15;spacingRight=4;overflow=hidden;rotatable=0;points=[[0,0.5],[1,0.5]];portConstraint=eastwest;html=1;" vertex="1" parent="nMxPNi23z6h84rDVdCxf-43">
          <mxGeometry y="40" width="364" height="50" as="geometry" />
        </mxCell>
        <mxCell id="nMxPNi23z6h84rDVdCxf-45" value="&lt;font style=&quot;color: rgb(255, 217, 102);&quot;&gt;@Query(&lt;span style=&quot;font-family: &amp;quot;JetBrains Mono&amp;quot;, monospace; background-color: rgb(30, 31, 34); color: rgb(106, 171, 115);&quot;&gt;&quot;&lt;/span&gt;&lt;span style=&quot;font-family: &amp;quot;JetBrains Mono&amp;quot;, monospace; color: rgb(106, 171, 115); background-color: rgb(41, 60, 64);&quot;&gt;Select * from `product-table` where id=:id&lt;/span&gt;&lt;span style=&quot;font-family: &amp;quot;JetBrains Mono&amp;quot;, monospace; background-color: rgb(30, 31, 34); color: rgb(106, 171, 115);&quot;&gt;&quot;&lt;/span&gt;&lt;span style=&quot;background-color: transparent;&quot;&gt;)&lt;/span&gt;&lt;br&gt;&lt;/font&gt;getProductById(id: Long) : Flow&amp;lt;&lt;span style=&quot;color: rgb(255, 153, 255); text-align: center;&quot;&gt;&amp;nbsp;&lt;span style=&quot;color: rgb(255, 153, 255); text-align: center;&quot;&gt;Product&lt;/span&gt;&lt;/span&gt;&amp;gt;&amp;nbsp;" style="text;align=left;verticalAlign=top;spacingLeft=15;spacingRight=4;overflow=hidden;rotatable=0;points=[[0,0.5],[1,0.5]];portConstraint=eastwest;html=1;" vertex="1" parent="nMxPNi23z6h84rDVdCxf-43">
          <mxGeometry y="90" width="364" height="50" as="geometry" />
        </mxCell>
        <mxCell id="nMxPNi23z6h84rDVdCxf-46" value="&lt;font style=&quot;color: rgb(255, 217, 102);&quot;&gt;@Insert&lt;/font&gt;&lt;br&gt;addProduct(productEntity :&amp;nbsp;&lt;span style=&quot;color: rgb(255, 153, 255); text-align: center; text-wrap-mode: nowrap;&quot;&gt;&amp;nbsp;&lt;span style=&quot;color: rgb(255, 153, 255); text-align: center;&quot;&gt;Product&lt;/span&gt;&lt;/span&gt;) : Long (Returns ID)" style="text;align=left;verticalAlign=top;spacingLeft=15;spacingRight=4;overflow=hidden;rotatable=0;points=[[0,0.5],[1,0.5]];portConstraint=eastwest;whiteSpace=wrap;html=1;" vertex="1" parent="nMxPNi23z6h84rDVdCxf-43">
          <mxGeometry y="140" width="364" height="50" as="geometry" />
        </mxCell>
        <mxCell id="nMxPNi23z6h84rDVdCxf-47" value="&lt;font style=&quot;color: rgb(255, 217, 102);&quot;&gt;@Update&lt;/font&gt;&lt;br&gt;updateProduct(productEntity :&amp;nbsp;&lt;span style=&quot;color: rgb(255, 153, 255); text-align: center;&quot;&gt;&amp;nbsp;&lt;span style=&quot;color: rgb(255, 153, 255); text-align: center;&quot;&gt;Product&lt;/span&gt;&lt;/span&gt;)&amp;nbsp;" style="text;align=left;verticalAlign=top;spacingLeft=15;spacingRight=4;overflow=hidden;rotatable=0;points=[[0,0.5],[1,0.5]];portConstraint=eastwest;html=1;" vertex="1" parent="nMxPNi23z6h84rDVdCxf-43">
          <mxGeometry y="190" width="364" height="50" as="geometry" />
        </mxCell>
        <mxCell id="nMxPNi23z6h84rDVdCxf-48" value="&lt;font style=&quot;color: rgb(255, 217, 102);&quot;&gt;@Delete&lt;/font&gt;&lt;br&gt;deleteProduct(productEntity : &amp;nbsp;&lt;span style=&quot;color: rgb(255, 153, 255); text-align: center;&quot;&gt;Product&lt;/span&gt;)&amp;nbsp;" style="text;align=left;verticalAlign=top;spacingLeft=15;spacingRight=4;overflow=hidden;rotatable=0;points=[[0,0.5],[1,0.5]];portConstraint=eastwest;html=1;" vertex="1" parent="nMxPNi23z6h84rDVdCxf-43">
          <mxGeometry y="240" width="364" height="50" as="geometry" />
        </mxCell>
        <mxCell id="nMxPNi23z6h84rDVdCxf-51" value="&amp;lt;&amp;lt;Abstract&amp;gt;&amp;gt;&lt;br&gt;&lt;font style=&quot;color: rgb(255, 153, 153);&quot;&gt;AppDatabase&lt;/font&gt;: RoomDataBase" style="swimlane;fontStyle=0;align=center;verticalAlign=top;childLayout=stackLayout;horizontal=1;startSize=40;horizontalStack=0;resizeParent=1;resizeLast=0;collapsible=1;marginBottom=0;rounded=0;shadow=0;strokeWidth=1;html=1;" vertex="1" parent="nMxPNi23z6h84rDVdCxf-33">
          <mxGeometry x="620" y="1040" width="400" height="280" as="geometry">
            <mxRectangle x="340" y="380" width="170" height="26" as="alternateBounds" />
          </mxGeometry>
        </mxCell>
        <mxCell id="nMxPNi23z6h84rDVdCxf-54" value="&lt;span style=&quot;color: rgb(255, 217, 102); text-align: center;&quot;&gt;@Database&lt;/span&gt;&lt;div&gt;&lt;font&gt;&lt;span style=&quot;text-align: center;&quot;&gt;(&lt;/span&gt;&lt;span style=&quot;white-space-collapse: preserve; text-align: center; background-color: transparent;&quot;&gt;&lt;font&gt;&#x9;&lt;/font&gt;&lt;/span&gt;&lt;/font&gt;&lt;span style=&quot;white-space-collapse: preserve; text-align: center; background-color: transparent; color: rgb(255, 217, 102);&quot;&gt;&lt;font style=&quot;color: rgb(0, 0, 0);&quot;&gt;&#x9;&lt;/font&gt;&lt;/span&gt;&lt;/div&gt;&lt;div&gt;&lt;/div&gt;&lt;div&gt;&lt;span style=&quot;text-align: center;&quot;&gt;&lt;span style=&quot;color: light-dark(rgb(0, 0, 0), rgb(255, 255, 255)); background-color: transparent; text-align: left;&quot;&gt;&lt;span style=&quot;white-space: pre;&quot;&gt;&#x9;&lt;/span&gt;entities: &lt;/span&gt;&lt;span style=&quot;background-color: transparent; text-align: left;&quot;&gt;&lt;font&gt;[&lt;/font&gt;&lt;font style=&quot;color: light-dark(rgb(0, 0, 0), rgb(255, 153, 255));&quot;&gt;Product, Owner, OwnerProductCrossRe&lt;/font&gt;&lt;/span&gt;&lt;span style=&quot;background-color: transparent; text-align: left;&quot;&gt;&lt;font style=&quot;color: light-dark(rgb(0, 0, 0), rgb(255, 153, 255));&quot;&gt;f&lt;/font&gt;&lt;/span&gt;&lt;span style=&quot;color: light-dark(rgb(0, 0, 0), rgb(255, 255, 255)); background-color: transparent; text-align: left;&quot;&gt;]&lt;/span&gt;&lt;/span&gt;&lt;/div&gt;&lt;div&gt;&lt;span style=&quot;color: rgb(255, 217, 102); text-align: center;&quot;&gt;&lt;span style=&quot;color: rgb(255, 255, 255); text-align: left;&quot;&gt;&lt;span style=&quot;white-space: pre;&quot;&gt;&#x9;&lt;/span&gt;version: Int&lt;/span&gt;&lt;/span&gt;&lt;/div&gt;&lt;div&gt;&lt;span style=&quot;color: rgb(255, 217, 102); text-align: center;&quot;&gt;&lt;span style=&quot;color: rgb(255, 255, 255); text-align: left;&quot;&gt;&lt;span style=&quot;white-space: pre;&quot;&gt;&#x9;&lt;/span&gt;exportSchema: Bool&lt;/span&gt;&lt;/span&gt;&lt;/div&gt;&lt;div&gt;&lt;span style=&quot;color: rgb(255, 217, 102); text-align: center;&quot;&gt;&lt;span style=&quot;color: rgb(255, 255, 255); text-align: left;&quot;&gt;)&lt;/span&gt;&lt;/span&gt;&lt;/div&gt;" style="text;align=left;verticalAlign=top;spacingLeft=15;spacingRight=4;overflow=hidden;rotatable=0;points=[[0,0.5],[1,0.5]];portConstraint=eastwest;html=1;" vertex="1" parent="nMxPNi23z6h84rDVdCxf-51">
          <mxGeometry y="40" width="400" height="120" as="geometry" />
        </mxCell>
        <mxCell id="xdBG03dk_vRxA38id0hs-46" value="productDao(): &lt;font style=&quot;color: light-dark(rgb(0, 0, 0), rgb(102, 178, 255));&quot;&gt;productDao&lt;/font&gt;" style="text;align=left;verticalAlign=top;spacingLeft=15;spacingRight=4;overflow=hidden;rotatable=0;points=[[0,0.5],[1,0.5]];portConstraint=eastwest;html=1;" vertex="1" parent="nMxPNi23z6h84rDVdCxf-51">
          <mxGeometry y="160" width="400" height="30" as="geometry" />
        </mxCell>
        <mxCell id="xdBG03dk_vRxA38id0hs-47" value="ownerDao(): &lt;font style=&quot;color: rgb(102, 178, 255);&quot;&gt;OwnerDao&lt;/font&gt;" style="text;align=left;verticalAlign=top;spacingLeft=15;spacingRight=4;overflow=hidden;rotatable=0;points=[[0,0.5],[1,0.5]];portConstraint=eastwest;html=1;" vertex="1" parent="nMxPNi23z6h84rDVdCxf-51">
          <mxGeometry y="190" width="400" height="30" as="geometry" />
        </mxCell>
        <mxCell id="xdBG03dk_vRxA38id0hs-48" value="ownerProctCrossRefDao(): &lt;font style=&quot;color: rgb(102, 178, 255);&quot;&gt;OwnerProductCrossRefDao&lt;/font&gt;" style="text;align=left;verticalAlign=top;spacingLeft=15;spacingRight=4;overflow=hidden;rotatable=0;points=[[0,0.5],[1,0.5]];portConstraint=eastwest;html=1;" vertex="1" parent="nMxPNi23z6h84rDVdCxf-51">
          <mxGeometry y="220" width="400" height="30" as="geometry" />
        </mxCell>
        <mxCell id="xdBG03dk_vRxA38id0hs-51" style="edgeStyle=orthogonalEdgeStyle;rounded=0;orthogonalLoop=1;jettySize=auto;html=1;" edge="1" parent="nMxPNi23z6h84rDVdCxf-33" target="xdBG03dk_vRxA38id0hs-50">
          <mxGeometry relative="1" as="geometry">
            <mxPoint x="800" y="441" as="sourcePoint" />
            <Array as="points">
              <mxPoint x="800" y="441" />
            </Array>
          </mxGeometry>
        </mxCell>
        <mxCell id="xdBG03dk_vRxA38id0hs-31" value="&lt;u&gt;Tables / Entities&lt;/u&gt;" style="shape=umlFrame;whiteSpace=wrap;html=1;pointerEvents=0;width=160;height=40;" vertex="1" parent="nMxPNi23z6h84rDVdCxf-33">
          <mxGeometry x="20" y="80" width="1560" height="360" as="geometry" />
        </mxCell>
        <mxCell id="xdBG03dk_vRxA38id0hs-32" value="&lt;font style=&quot;color: rgb(255, 153, 255);&quot;&gt;&amp;nbsp;&lt;span style=&quot;color: rgb(255, 153, 255); text-align: center;&quot;&gt;Product&lt;/span&gt;&lt;/font&gt;" style="swimlane;fontStyle=0;align=center;verticalAlign=top;childLayout=stackLayout;horizontal=1;startSize=30;horizontalStack=0;resizeParent=1;resizeLast=0;collapsible=1;marginBottom=0;rounded=0;shadow=0;strokeWidth=1;html=1;" vertex="1" parent="nMxPNi23z6h84rDVdCxf-33">
          <mxGeometry x="40" y="160" width="280" height="240" as="geometry">
            <mxRectangle x="550" y="140" width="160" height="26" as="alternateBounds" />
          </mxGeometry>
        </mxCell>
        <mxCell id="xdBG03dk_vRxA38id0hs-33" value="&lt;span style=&quot;font-family: Helvetica; font-size: 12px; font-style: normal; font-variant-ligatures: normal; font-variant-caps: normal; font-weight: 400; letter-spacing: normal; orphans: 2; text-align: center; text-indent: 0px; text-transform: none; widows: 2; word-spacing: 0px; -webkit-text-stroke-width: 0px; text-decoration-thickness: initial; text-decoration-style: initial; text-decoration-color: initial; float: none; display: inline !important;&quot;&gt;&lt;font style=&quot;color: rgb(255, 217, 102);&quot;&gt;@Entity&lt;/font&gt;&lt;/span&gt;&lt;span style=&quot;color: rgb(240, 240, 240); font-family: Helvetica; font-size: 12px; font-style: normal; font-variant-ligatures: normal; font-variant-caps: normal; font-weight: 400; letter-spacing: normal; orphans: 2; text-align: center; text-indent: 0px; text-transform: none; widows: 2; word-spacing: 0px; -webkit-text-stroke-width: 0px; background-color: rgb(27, 29, 30); text-decoration-thickness: initial; text-decoration-style: initial; text-decoration-color: initial; float: none; display: inline !important;&quot;&gt;(tableName=&quot;product-table&quot;)&lt;/span&gt;" style="text;whiteSpace=wrap;html=1;spacingLeft=15;" vertex="1" parent="xdBG03dk_vRxA38id0hs-32">
          <mxGeometry y="30" width="280" height="30" as="geometry" />
        </mxCell>
        <mxCell id="xdBG03dk_vRxA38id0hs-34" value="&lt;font style=&quot;color: rgb(255, 217, 102);&quot;&gt;@PrimaryKey&lt;/font&gt;&lt;br&gt;id: Long" style="text;align=left;verticalAlign=top;spacingLeft=15;spacingRight=4;overflow=hidden;rotatable=0;points=[[0,0.5],[1,0.5]];portConstraint=eastwest;html=1;" vertex="1" parent="xdBG03dk_vRxA38id0hs-32">
          <mxGeometry y="60" width="280" height="50" as="geometry" />
        </mxCell>
        <mxCell id="xdBG03dk_vRxA38id0hs-35" value="&lt;font style=&quot;color: rgb(255, 217, 102);&quot;&gt;@ColumnInfo&lt;/font&gt;(name=&quot;serial-number&quot;)&lt;br&gt;serialNumber : Int" style="text;align=left;verticalAlign=top;spacingLeft=15;spacingRight=4;overflow=hidden;rotatable=0;points=[[0,0.5],[1,0.5]];portConstraint=eastwest;html=1;" vertex="1" parent="xdBG03dk_vRxA38id0hs-32">
          <mxGeometry y="110" width="280" height="50" as="geometry" />
        </mxCell>
        <mxCell id="xdBG03dk_vRxA38id0hs-36" value="&lt;font style=&quot;color: rgb(255, 217, 102);&quot;&gt;@ColumnInfo&lt;/font&gt;(name=&quot;price&quot;)&lt;br&gt;price : Int" style="text;align=left;verticalAlign=top;spacingLeft=15;spacingRight=4;overflow=hidden;rotatable=0;points=[[0,0.5],[1,0.5]];portConstraint=eastwest;html=1;" vertex="1" parent="xdBG03dk_vRxA38id0hs-32">
          <mxGeometry y="160" width="280" height="50" as="geometry" />
        </mxCell>
        <mxCell id="xdBG03dk_vRxA38id0hs-37" value="&lt;font color=&quot;#ff99ff&quot;&gt;Owner&lt;/font&gt;" style="swimlane;fontStyle=0;align=center;verticalAlign=top;childLayout=stackLayout;horizontal=1;startSize=30;horizontalStack=0;resizeParent=1;resizeLast=0;collapsible=1;marginBottom=0;rounded=0;shadow=0;strokeWidth=1;html=1;" vertex="1" parent="nMxPNi23z6h84rDVdCxf-33">
          <mxGeometry x="340" y="160" width="280" height="160" as="geometry">
            <mxRectangle x="550" y="140" width="160" height="26" as="alternateBounds" />
          </mxGeometry>
        </mxCell>
        <mxCell id="xdBG03dk_vRxA38id0hs-38" value="&lt;span style=&quot;font-family: Helvetica; font-size: 12px; font-style: normal; font-variant-ligatures: normal; font-variant-caps: normal; font-weight: 400; letter-spacing: normal; orphans: 2; text-align: center; text-indent: 0px; text-transform: none; widows: 2; word-spacing: 0px; -webkit-text-stroke-width: 0px; text-decoration-thickness: initial; text-decoration-style: initial; text-decoration-color: initial; float: none; display: inline !important;&quot;&gt;&lt;font style=&quot;color: rgb(255, 217, 102);&quot;&gt;@Entity&lt;/font&gt;&lt;/span&gt;&lt;span style=&quot;color: rgb(240, 240, 240); font-family: Helvetica; font-size: 12px; font-style: normal; font-variant-ligatures: normal; font-variant-caps: normal; font-weight: 400; letter-spacing: normal; orphans: 2; text-align: center; text-indent: 0px; text-transform: none; widows: 2; word-spacing: 0px; -webkit-text-stroke-width: 0px; background-color: rgb(27, 29, 30); text-decoration-thickness: initial; text-decoration-style: initial; text-decoration-color: initial; float: none; display: inline !important;&quot;&gt;(tableName=&quot;owner-table&quot;)&lt;/span&gt;" style="text;whiteSpace=wrap;html=1;spacingLeft=15;" vertex="1" parent="xdBG03dk_vRxA38id0hs-37">
          <mxGeometry y="30" width="280" height="30" as="geometry" />
        </mxCell>
        <mxCell id="xdBG03dk_vRxA38id0hs-39" value="&lt;font style=&quot;color: rgb(255, 217, 102);&quot;&gt;@PrimaryKey&lt;/font&gt;&lt;br&gt;id: Long" style="text;align=left;verticalAlign=top;spacingLeft=15;spacingRight=4;overflow=hidden;rotatable=0;points=[[0,0.5],[1,0.5]];portConstraint=eastwest;html=1;" vertex="1" parent="xdBG03dk_vRxA38id0hs-37">
          <mxGeometry y="60" width="280" height="50" as="geometry" />
        </mxCell>
        <mxCell id="xdBG03dk_vRxA38id0hs-40" value="&lt;font style=&quot;color: rgb(255, 217, 102);&quot;&gt;@ColumnInfo&lt;/font&gt;(name=&quot;name&quot;)&lt;br&gt;name: String" style="text;align=left;verticalAlign=top;spacingLeft=15;spacingRight=4;overflow=hidden;rotatable=0;points=[[0,0.5],[1,0.5]];portConstraint=eastwest;html=1;" vertex="1" parent="xdBG03dk_vRxA38id0hs-37">
          <mxGeometry y="110" width="280" height="50" as="geometry" />
        </mxCell>
        <mxCell id="xdBG03dk_vRxA38id0hs-41" value="&lt;font color=&quot;#ff99ff&quot;&gt;ownerProductCrossRef&lt;/font&gt;" style="swimlane;fontStyle=0;align=center;verticalAlign=top;childLayout=stackLayout;horizontal=1;startSize=30;horizontalStack=0;resizeParent=1;resizeLast=0;collapsible=1;marginBottom=0;rounded=0;shadow=0;strokeWidth=1;html=1;" vertex="1" parent="nMxPNi23z6h84rDVdCxf-33">
          <mxGeometry x="640" y="160" width="400" height="200" as="geometry">
            <mxRectangle x="550" y="140" width="160" height="26" as="alternateBounds" />
          </mxGeometry>
        </mxCell>
        <mxCell id="xdBG03dk_vRxA38id0hs-42" value="&lt;span style=&quot;font-family: Helvetica; font-size: 12px; font-style: normal; font-variant-ligatures: normal; font-variant-caps: normal; font-weight: 400; letter-spacing: normal; orphans: 2; text-align: center; text-indent: 0px; text-transform: none; widows: 2; word-spacing: 0px; -webkit-text-stroke-width: 0px; text-decoration-thickness: initial; text-decoration-style: initial; text-decoration-color: initial; float: none; display: inline !important;&quot;&gt;&lt;font style=&quot;color: rgb(255, 217, 102);&quot;&gt;@Entity&lt;/font&gt;&lt;/span&gt;&lt;span style=&quot;font-size: 12px; font-style: normal; font-variant-ligatures: normal; font-variant-caps: normal; font-weight: 400; letter-spacing: normal; orphans: 2; text-align: center; text-indent: 0px; text-transform: none; widows: 2; word-spacing: 0px; -webkit-text-stroke-width: 0px; text-decoration-thickness: initial; text-decoration-style: initial; text-decoration-color: initial; float: none; color: rgb(240, 240, 240); display: inline !important;&quot;&gt;&lt;font style=&quot;font-family: Helvetica; background-color: rgb(27, 29, 30);&quot; color=&quot;#f0f0f0&quot;&gt;(&lt;/font&gt;&lt;/span&gt;&lt;div&gt;&lt;span style=&quot;font-size: 12px; font-style: normal; font-variant-ligatures: normal; font-variant-caps: normal; font-weight: 400; letter-spacing: normal; orphans: 2; text-align: center; text-indent: 0px; text-transform: none; widows: 2; word-spacing: 0px; -webkit-text-stroke-width: 0px; text-decoration-thickness: initial; text-decoration-style: initial; text-decoration-color: initial; float: none; color: rgb(240, 240, 240); display: inline !important;&quot;&gt;&lt;font face=&quot;Helvetica&quot; style=&quot;&quot;&gt;&lt;span style=&quot;white-space: pre;&quot;&gt;&#x9;&lt;/span&gt;tableName = &quot;owner-product-cross-ref-table&quot;,&amp;nbsp;&lt;/font&gt;&lt;/span&gt;&lt;/div&gt;&lt;div&gt;&lt;span&gt;&lt;span style=&quot;font-size: 12px; font-style: normal; font-variant-ligatures: normal; font-variant-caps: normal; font-weight: 400; letter-spacing: normal; orphans: 2; text-align: center; text-indent: 0px; text-transform: none; widows: 2; word-spacing: 0px; -webkit-text-stroke-width: 0px; text-decoration-thickness: initial; text-decoration-style: initial; text-decoration-color: initial; float: none; color: rgb(240, 240, 240); display: inline !important;&quot;&gt;&lt;font face=&quot;Helvetica&quot; style=&quot;&quot;&gt;&lt;span style=&quot;white-space: pre;&quot;&gt;&#x9;&lt;/span&gt;&lt;span&gt;p&lt;/span&gt;&lt;/font&gt;&lt;/span&gt;&lt;span&gt;&lt;font face=&quot;Helvetica&quot;&gt;&lt;font style=&quot;color: rgb(243, 243, 243);&quot;&gt;&lt;span style=&quot;font-size: 12px; font-style: normal; font-variant-ligatures: normal; font-variant-caps: normal; font-weight: 400; letter-spacing: normal; orphans: 2; text-align: center; text-indent: 0px; text-transform: none; widows: 2; word-spacing: 0px; -webkit-text-stroke-width: 0px; text-decoration-thickness: initial; text-decoration-style: initial; text-decoration-color: initial; float: none; color: rgb(240, 240, 240); display: inline !important;&quot;&gt;ri&lt;/span&gt;&lt;span style=&quot;font-size: 12px; font-style: normal; font-variant-ligatures: normal; font-variant-caps: normal; font-weight: 400; letter-spacing: normal; orphans: 2; text-align: center; text-indent: 0px; text-transform: none; widows: 2; word-spacing: 0px; -webkit-text-stroke-width: 0px; text-decoration-thickness: initial; text-decoration-style: initial; text-decoration-color: initial; float: none; color: rgb(240, 240, 240); display: inline !important;&quot;&gt;m&lt;/span&gt;&lt;/font&gt;&lt;span style=&quot;font-size: 12px; font-style: normal; font-variant-ligatures: normal; font-variant-caps: normal; font-weight: 400; letter-spacing: normal; orphans: 2; text-align: center; text-indent: 0px; text-transform: none; widows: 2; word-spacing: 0px; -webkit-text-stroke-width: 0px; text-decoration-thickness: initial; text-decoration-style: initial; text-decoration-color: initial; float: none; color: rgb(240, 240, 240); display: inline !important;&quot;&gt;ary&lt;/span&gt;&lt;/font&gt;&lt;span style=&quot;color: rgb(240, 240, 240); font-size: 12px; font-style: normal; font-variant-ligatures: normal; font-variant-caps: normal; font-weight: 400; letter-spacing: normal; orphans: 2; text-align: center; text-indent: 0px; text-transform: none; widows: 2; word-spacing: 0px; -webkit-text-stroke-width: 0px; text-decoration-thickness: initial; text-decoration-style: initial; text-decoration-color: initial; float: none; display: inline !important;&quot;&gt;&lt;font style=&quot;&quot; face=&quot;Helvetica&quot;&gt;Keys = [&quot;ownerID&quot;, &quot;productID&quot;]&lt;/font&gt;&lt;/span&gt;&lt;/span&gt;&lt;/span&gt;&lt;/div&gt;&lt;div&gt;&lt;span style=&quot;color: rgb(240, 240, 240); font-size: 12px; font-style: normal; font-variant-ligatures: normal; font-variant-caps: normal; font-weight: 400; letter-spacing: normal; orphans: 2; text-align: center; text-indent: 0px; text-transform: none; widows: 2; word-spacing: 0px; -webkit-text-stroke-width: 0px; background-color: rgb(27, 29, 30); text-decoration-thickness: initial; text-decoration-style: initial; text-decoration-color: initial; float: none; display: inline !important;&quot;&gt;&lt;font face=&quot;Helvetica&quot;&gt;)&lt;/font&gt;&lt;br&gt;&lt;/span&gt;&lt;/div&gt;" style="text;whiteSpace=wrap;html=1;spacingLeft=15;" vertex="1" parent="xdBG03dk_vRxA38id0hs-41">
          <mxGeometry y="30" width="400" height="70" as="geometry" />
        </mxCell>
        <mxCell id="xdBG03dk_vRxA38id0hs-43" value="&lt;div&gt;&lt;font style=&quot;color: rgb(255, 217, 102);&quot;&gt;@ColumnInfo&lt;/font&gt;(name=&quot;ownerID&quot;)&lt;/div&gt;ownerID: Long" style="text;align=left;verticalAlign=top;spacingLeft=15;spacingRight=4;overflow=hidden;rotatable=0;points=[[0,0.5],[1,0.5]];portConstraint=eastwest;html=1;" vertex="1" parent="xdBG03dk_vRxA38id0hs-41">
          <mxGeometry y="100" width="400" height="40" as="geometry" />
        </mxCell>
        <mxCell id="xdBG03dk_vRxA38id0hs-44" value="&lt;div&gt;&lt;font style=&quot;color: rgb(255, 217, 102);&quot;&gt;@ColumnInfo&lt;/font&gt;(name=&quot;productID&quot;)&lt;/div&gt;productID: Long" style="text;align=left;verticalAlign=top;spacingLeft=15;spacingRight=4;overflow=hidden;rotatable=0;points=[[0,0.5],[1,0.5]];portConstraint=eastwest;html=1;" vertex="1" parent="xdBG03dk_vRxA38id0hs-41">
          <mxGeometry y="140" width="400" height="40" as="geometry" />
        </mxCell>
        <mxCell id="xdBG03dk_vRxA38id0hs-88" style="edgeStyle=orthogonalEdgeStyle;rounded=0;orthogonalLoop=1;jettySize=auto;html=1;entryX=0.5;entryY=0;entryDx=0;entryDy=0;exitX=0.513;exitY=1;exitDx=0;exitDy=0;exitPerimeter=0;" edge="1" parent="nMxPNi23z6h84rDVdCxf-33" source="xdBG03dk_vRxA38id0hs-50" target="nMxPNi23z6h84rDVdCxf-51">
          <mxGeometry relative="1" as="geometry" />
        </mxCell>
        <mxCell id="3oQFEvOwx1MSVjqHcLaz-0" value="Tell database what&amp;nbsp;&lt;div&gt;DAOs and Entities to use&lt;/div&gt;" style="edgeLabel;html=1;align=center;verticalAlign=middle;resizable=0;points=[];" vertex="1" connectable="0" parent="xdBG03dk_vRxA38id0hs-88">
          <mxGeometry x="-0.2858" y="-1" relative="1" as="geometry">
            <mxPoint x="1" y="11" as="offset" />
          </mxGeometry>
        </mxCell>
        <mxCell id="xdBG03dk_vRxA38id0hs-50" value="&lt;u&gt;Queries and commands&lt;/u&gt;" style="shape=umlFrame;whiteSpace=wrap;html=1;pointerEvents=0;width=240;height=40;" vertex="1" parent="nMxPNi23z6h84rDVdCxf-33">
          <mxGeometry x="20" y="480" width="1560" height="480" as="geometry" />
        </mxCell>
        <mxCell id="xdBG03dk_vRxA38id0hs-5" value="&amp;lt;&amp;lt;Interface&amp;gt;&amp;gt;&lt;br&gt;&lt;font color=&quot;#66b2ff&quot;&gt;&lt;font color=&quot;#66b2ff&quot;&gt;OwnerDao&lt;/font&gt;&lt;/font&gt;" style="swimlane;fontStyle=0;align=center;verticalAlign=top;childLayout=stackLayout;horizontal=1;startSize=40;horizontalStack=0;resizeParent=1;resizeLast=0;collapsible=1;marginBottom=0;rounded=0;shadow=0;strokeWidth=1;html=1;" vertex="1" parent="nMxPNi23z6h84rDVdCxf-33">
          <mxGeometry x="624" y="560" width="400" height="360" as="geometry">
            <mxRectangle x="550" y="140" width="160" height="26" as="alternateBounds" />
          </mxGeometry>
        </mxCell>
        <mxCell id="xdBG03dk_vRxA38id0hs-11" value="&lt;font style=&quot;color: rgb(255, 217, 102);&quot;&gt;@Insert&lt;/font&gt;&lt;br&gt;addOwner(ownerEntity :&amp;nbsp;&lt;span style=&quot;color: rgb(255, 153, 255); text-align: center; text-wrap-mode: nowrap;&quot;&gt;&amp;nbsp;&lt;span style=&quot;color: rgb(255, 153, 255); text-align: center;&quot;&gt;Owner&lt;/span&gt;&lt;/span&gt;)&amp;nbsp;: Long (Returns ID)&amp;nbsp;" style="text;align=left;verticalAlign=top;spacingLeft=15;spacingRight=4;overflow=hidden;rotatable=0;points=[[0,0.5],[1,0.5]];portConstraint=eastwest;whiteSpace=wrap;html=1;" vertex="1" parent="xdBG03dk_vRxA38id0hs-5">
          <mxGeometry y="40" width="400" height="50" as="geometry" />
        </mxCell>
        <mxCell id="xdBG03dk_vRxA38id0hs-6" value="&lt;font style=&quot;color: rgb(255, 217, 102);&quot;&gt;@Query(&lt;span style=&quot;font-family: &amp;quot;JetBrains Mono&amp;quot;, monospace; background-color: rgb(30, 31, 34); color: rgb(106, 171, 115);&quot;&gt;&quot;&lt;/span&gt;&lt;span style=&quot;font-family: &amp;quot;JetBrains Mono&amp;quot;, monospace; color: rgb(106, 171, 115); background-color: rgb(41, 60, 64);&quot;&gt;Select * from `owner-table`&lt;/span&gt;&lt;span style=&quot;font-family: &amp;quot;JetBrains Mono&amp;quot;, monospace; background-color: rgb(30, 31, 34); color: rgb(106, 171, 115);&quot;&gt;&quot;&lt;/span&gt;&lt;span style=&quot;background-color: transparent;&quot;&gt;)&lt;/span&gt;&lt;br&gt;&lt;/font&gt;getAllOwners() : Flow&amp;lt;List&amp;lt;&lt;span style=&quot;color: rgb(255, 153, 255); text-align: center;&quot;&gt;&amp;nbsp;Owner&lt;/span&gt;&amp;gt;&amp;gt;" style="text;align=left;verticalAlign=top;spacingLeft=15;spacingRight=4;overflow=hidden;rotatable=0;points=[[0,0.5],[1,0.5]];portConstraint=eastwest;html=1;" vertex="1" parent="xdBG03dk_vRxA38id0hs-5">
          <mxGeometry y="90" width="400" height="50" as="geometry" />
        </mxCell>
        <mxCell id="xdBG03dk_vRxA38id0hs-9" value="&lt;font style=&quot;color: rgb(255, 217, 102);&quot;&gt;@Update&lt;/font&gt;&lt;br&gt;updateOwner(ownerEntity :&amp;nbsp;&lt;span style=&quot;color: rgb(255, 153, 255); text-align: center;&quot;&gt;&amp;nbsp;&lt;span style=&quot;color: rgb(255, 153, 255); text-align: center;&quot;&gt;Owner&lt;/span&gt;&lt;/span&gt;)&amp;nbsp;" style="text;align=left;verticalAlign=top;spacingLeft=15;spacingRight=4;overflow=hidden;rotatable=0;points=[[0,0.5],[1,0.5]];portConstraint=eastwest;html=1;" vertex="1" parent="xdBG03dk_vRxA38id0hs-5">
          <mxGeometry y="140" width="400" height="50" as="geometry" />
        </mxCell>
        <mxCell id="xdBG03dk_vRxA38id0hs-10" value="&lt;font style=&quot;color: rgb(255, 217, 102);&quot;&gt;@Delete&lt;/font&gt;&lt;br&gt;deleteOwner(ownerEntity : &amp;nbsp;&lt;span style=&quot;color: rgb(255, 153, 255); text-align: center;&quot;&gt;Owner&lt;/span&gt;)&amp;nbsp;" style="text;align=left;verticalAlign=top;spacingLeft=15;spacingRight=4;overflow=hidden;rotatable=0;points=[[0,0.5],[1,0.5]];portConstraint=eastwest;html=1;" vertex="1" parent="xdBG03dk_vRxA38id0hs-5">
          <mxGeometry y="190" width="400" height="50" as="geometry" />
        </mxCell>
        <mxCell id="xdBG03dk_vRxA38id0hs-7" value="&lt;font style=&quot;color: rgb(255, 217, 102);&quot;&gt;@Query(&lt;span style=&quot;font-family: &amp;quot;JetBrains Mono&amp;quot;, monospace; background-color: rgb(30, 31, 34); color: rgb(106, 171, 115);&quot;&gt;&quot;&lt;/span&gt;&lt;span style=&quot;font-family: &amp;quot;JetBrains Mono&amp;quot;, monospace; color: rgb(106, 171, 115); background-color: rgb(41, 60, 64);&quot;&gt;Select * from `owner-table` where id=:id&lt;/span&gt;&lt;span style=&quot;font-family: &amp;quot;JetBrains Mono&amp;quot;, monospace; background-color: rgb(30, 31, 34); color: rgb(106, 171, 115);&quot;&gt;&quot;&lt;/span&gt;&lt;span style=&quot;background-color: transparent;&quot;&gt;)&lt;/span&gt;&lt;br&gt;&lt;/font&gt;getOwnerById(id: Long) : Flow&amp;lt;&lt;span style=&quot;color: rgb(255, 153, 255); text-align: center;&quot;&gt;&lt;span style=&quot;color: rgb(255, 153, 255); text-align: center;&quot;&gt;Owner&lt;/span&gt;&lt;/span&gt;&amp;gt;&amp;nbsp;" style="text;align=left;verticalAlign=top;spacingLeft=15;spacingRight=4;overflow=hidden;rotatable=0;points=[[0,0.5],[1,0.5]];portConstraint=eastwest;html=1;" vertex="1" parent="xdBG03dk_vRxA38id0hs-5">
          <mxGeometry y="240" width="400" height="50" as="geometry" />
        </mxCell>
        <mxCell id="xdBG03dk_vRxA38id0hs-8" value="&lt;div&gt;&lt;span style=&quot;color: rgb(255, 217, 102); background-color: transparent;&quot;&gt;@Query(&lt;/span&gt;&lt;span style=&quot;font-family: &amp;quot;JetBrains Mono&amp;quot;, monospace; background-color: rgb(30, 31, 34); color: rgb(106, 171, 115);&quot;&gt;&quot;&lt;/span&gt;&lt;span style=&quot;font-family: &amp;quot;JetBrains Mono&amp;quot;, monospace; color: rgb(106, 171, 115); background-color: rgb(41, 60, 64);&quot;&gt;Select * from `owner-table` where id= :ownerID&lt;/span&gt;&lt;span style=&quot;font-family: &amp;quot;JetBrains Mono&amp;quot;, monospace; background-color: rgb(30, 31, 34); color: rgb(106, 171, 115);&quot;&gt;&quot;&lt;/span&gt;&lt;span style=&quot;background-color: transparent; color: rgb(255, 217, 102);&quot;&gt;)&lt;/span&gt;&lt;/div&gt;getOwnerWithProducts(ownerID: Long): Flow&amp;lt;OwnerWithProducts&amp;gt;" style="text;align=left;verticalAlign=top;spacingLeft=15;spacingRight=4;overflow=hidden;rotatable=0;points=[[0,0.5],[1,0.5]];portConstraint=eastwest;whiteSpace=wrap;html=1;" vertex="1" parent="xdBG03dk_vRxA38id0hs-5">
          <mxGeometry y="290" width="400" height="50" as="geometry" />
        </mxCell>
        <mxCell id="xdBG03dk_vRxA38id0hs-18" value="&amp;lt;&amp;lt;Interface&amp;gt;&amp;gt;&lt;br&gt;&lt;font color=&quot;#66b2ff&quot;&gt;&lt;font color=&quot;#66b2ff&quot;&gt;OwnerProductCrossRefDao&lt;/font&gt;&lt;/font&gt;" style="swimlane;fontStyle=0;align=center;verticalAlign=top;childLayout=stackLayout;horizontal=1;startSize=40;horizontalStack=0;resizeParent=1;resizeLast=0;collapsible=1;marginBottom=0;rounded=0;shadow=0;strokeWidth=1;html=1;" vertex="1" parent="nMxPNi23z6h84rDVdCxf-33">
          <mxGeometry x="1064" y="560" width="400" height="160" as="geometry">
            <mxRectangle x="550" y="140" width="160" height="26" as="alternateBounds" />
          </mxGeometry>
        </mxCell>
        <mxCell id="xdBG03dk_vRxA38id0hs-19" value="&lt;font style=&quot;color: rgb(255, 217, 102);&quot;&gt;@Insert&lt;/font&gt;&lt;div&gt;&lt;font face=&quot;Helvetica&quot;&gt;&lt;span&gt;insertCrossRef&lt;/span&gt;&lt;span&gt;(crossRef: &lt;font style=&quot;color: light-dark(rgb(255, 153, 255), rgb(255, 153, 255));&quot;&gt;OwnerProductCrossRe&lt;/font&gt;f)&lt;/span&gt;&lt;/font&gt;&lt;/div&gt;" style="text;align=left;verticalAlign=top;spacingLeft=15;spacingRight=4;overflow=hidden;rotatable=0;points=[[0,0.5],[1,0.5]];portConstraint=eastwest;whiteSpace=wrap;html=1;" vertex="1" parent="xdBG03dk_vRxA38id0hs-18">
          <mxGeometry y="40" width="400" height="50" as="geometry" />
        </mxCell>
        <mxCell id="xdBG03dk_vRxA38id0hs-22" value="&lt;font style=&quot;color: rgb(255, 217, 102);&quot;&gt;@Delete&lt;/font&gt;&lt;br&gt;deleteCrossRef(crossRef:&amp;nbsp; &lt;font style=&quot;color: light-dark(rgb(255, 153, 255), rgb(255, 153, 255));&quot;&gt;OwnerProductCrossRef&lt;/font&gt;)&amp;nbsp;" style="text;align=left;verticalAlign=top;spacingLeft=15;spacingRight=4;overflow=hidden;rotatable=0;points=[[0,0.5],[1,0.5]];portConstraint=eastwest;html=1;" vertex="1" parent="xdBG03dk_vRxA38id0hs-18">
          <mxGeometry y="90" width="400" height="50" as="geometry" />
        </mxCell>
        <mxCell id="xdBG03dk_vRxA38id0hs-25" value="&lt;font color=&quot;#ff99ff&quot;&gt;ownerWithProducts&lt;/font&gt;" style="swimlane;fontStyle=0;align=center;verticalAlign=top;childLayout=stackLayout;horizontal=1;startSize=30;horizontalStack=0;resizeParent=1;resizeLast=0;collapsible=1;marginBottom=0;rounded=0;shadow=0;strokeWidth=1;html=1;" vertex="1" parent="nMxPNi23z6h84rDVdCxf-33">
          <mxGeometry x="1080" y="100" width="480" height="320" as="geometry">
            <mxRectangle x="550" y="140" width="160" height="26" as="alternateBounds" />
          </mxGeometry>
        </mxCell>
        <mxCell id="xdBG03dk_vRxA38id0hs-26" value="&lt;span style=&quot;font-family: Helvetica; font-size: 12px; font-style: normal; font-variant-ligatures: normal; font-variant-caps: normal; font-weight: 400; letter-spacing: normal; orphans: 2; text-align: center; text-indent: 0px; text-transform: none; widows: 2; word-spacing: 0px; -webkit-text-stroke-width: 0px; text-decoration-thickness: initial; text-decoration-style: initial; text-decoration-color: initial; float: none; display: inline !important;&quot;&gt;&lt;font style=&quot;color: rgb(255, 217, 102);&quot;&gt;@Embedded&amp;nbsp;&lt;/font&gt;&lt;/span&gt;&lt;div&gt;&lt;span style=&quot;font-family: Helvetica; font-size: 12px; font-style: normal; font-variant-ligatures: normal; font-variant-caps: normal; font-weight: 400; letter-spacing: normal; orphans: 2; text-align: center; text-indent: 0px; text-transform: none; widows: 2; word-spacing: 0px; -webkit-text-stroke-width: 0px; text-decoration-thickness: initial; text-decoration-style: initial; text-decoration-color: initial; float: none; display: inline !important;&quot;&gt;&lt;font style=&quot;color: rgb(243, 243, 243);&quot;&gt;owner: Owner&lt;/font&gt;&lt;/span&gt;&lt;/div&gt;" style="text;whiteSpace=wrap;html=1;spacingLeft=15;" vertex="1" parent="xdBG03dk_vRxA38id0hs-25">
          <mxGeometry y="30" width="480" height="50" as="geometry" />
        </mxCell>
        <mxCell id="xdBG03dk_vRxA38id0hs-29" value="&lt;span style=&quot;font-family: Helvetica; font-size: 12px; font-style: normal; font-variant-ligatures: normal; font-variant-caps: normal; font-weight: 400; letter-spacing: normal; orphans: 2; text-align: center; text-indent: 0px; text-transform: none; widows: 2; word-spacing: 0px; -webkit-text-stroke-width: 0px; text-decoration-thickness: initial; text-decoration-style: initial; text-decoration-color: initial; float: none; display: inline !important;&quot;&gt;&lt;font style=&quot;color: rgb(255, 217, 102);&quot;&gt;@Relation&amp;nbsp;&lt;/font&gt;&lt;/span&gt;&lt;div&gt;&lt;span style=&quot;font-family: Helvetica; font-size: 12px; font-style: normal; font-variant-ligatures: normal; font-variant-caps: normal; font-weight: 400; letter-spacing: normal; orphans: 2; text-align: center; text-indent: 0px; text-transform: none; widows: 2; word-spacing: 0px; -webkit-text-stroke-width: 0px; text-decoration-thickness: initial; text-decoration-style: initial; text-decoration-color: initial; float: none; display: inline !important;&quot;&gt;&lt;font style=&quot;color: rgb(243, 243, 243);&quot;&gt;(&lt;/font&gt;&lt;/span&gt;&lt;/div&gt;&lt;div&gt;&lt;span&gt;&lt;font&gt;&lt;span style=&quot;color: rgb(243, 243, 243); font-family: Helvetica; font-size: 12px; font-style: normal; font-variant-ligatures: normal; font-variant-caps: normal; font-weight: 400; letter-spacing: normal; orphans: 2; text-align: center; text-indent: 0px; text-transform: none; widows: 2; word-spacing: 0px; -webkit-text-stroke-width: 0px; text-decoration-thickness: initial; text-decoration-style: initial; text-decoration-color: initial; float: none; display: inline !important;&quot;&gt;&lt;font style=&quot;color: rgb(243, 243, 243);&quot;&gt;&lt;span style=&quot;white-space: pre;&quot;&gt;&#x9;&lt;span style=&quot;white-space: pre;&quot;&gt;&#x9;&lt;/span&gt;&lt;/span&gt;&lt;/font&gt;&lt;/span&gt;&lt;span style=&quot;color: rgb(243, 243, 243); font-family: &amp;quot;JetBrains Mono&amp;quot;, monospace;&quot;&gt;parentColumn = &lt;/span&gt;&lt;span style=&quot;color: rgb(243, 243, 243); font-family: &amp;quot;JetBrains Mono&amp;quot;, monospace;&quot;&gt;&quot;id&quot;&lt;/span&gt;&lt;span style=&quot;color: rgb(243, 243, 243); font-family: &amp;quot;JetBrains Mono&amp;quot;, monospace;&quot;&gt;,    &lt;/span&gt;&lt;span style=&quot;font-family: &amp;quot;JetBrains Mono&amp;quot;, monospace;&quot;&gt;&lt;font style=&quot;color: light-dark(rgb(150, 150, 150), rgb(184, 184, 184));&quot;&gt;// Owner&#39;s PK&lt;/font&gt;&lt;/span&gt;&lt;/font&gt;&lt;/span&gt;&lt;/div&gt;&lt;div&gt;&lt;span style=&quot;background-color: transparent; color: rgb(243, 243, 243); font-family: &amp;quot;JetBrains Mono&amp;quot;, monospace;&quot;&gt;&lt;span style=&quot;white-space: pre;&quot;&gt;&#x9;&lt;/span&gt;entityColumn = &quot;id&quot;,&lt;/span&gt;&lt;font&gt;&lt;span style=&quot;color: rgb(243, 243, 243); background-color: transparent; font-family: &amp;quot;JetBrains Mono&amp;quot;, monospace;&quot;&gt;     &lt;/span&gt;&lt;span style=&quot;background-color: transparent; font-family: &amp;quot;JetBrains Mono&amp;quot;, monospace; color: rgb(243, 243, 243);&quot;&gt;&lt;font style=&quot;color: light-dark(rgb(190, 190, 190), rgb(184, 184, 184));&quot;&gt;// Product&#39;s PK&lt;/font&gt;&lt;/span&gt;&lt;/font&gt;&lt;/div&gt;&lt;div&gt;&lt;span style=&quot;color: rgb(243, 243, 243); font-family: &amp;quot;JetBrains Mono&amp;quot;, monospace; background-color: transparent;&quot;&gt;&lt;span style=&quot;white-space: pre;&quot;&gt;&#x9;&lt;/span&gt;associateBy = Junction(&lt;/span&gt;&lt;/div&gt;&lt;div&gt;&lt;span style=&quot;font-family: &amp;quot;JetBrains Mono&amp;quot;, monospace; background-color: transparent; color: rgb(243, 243, 243);&quot;&gt;&lt;span style=&quot;color: rgb(243, 243, 243); white-space: pre;&quot;&gt;&#x9;&lt;/span&gt;&lt;span style=&quot;color: rgb(243, 243, 243); white-space: pre;&quot;&gt;&#x9;&lt;/span&gt;&lt;font style=&quot;color: light-dark(rgb(13, 196, 243), rgb(154, 228, 255));&quot;&gt;value =&lt;/font&gt;&lt;/span&gt;&lt;span style=&quot;color: rgb(243, 243, 243); font-family: &amp;quot;JetBrains Mono&amp;quot;, monospace; background-color: transparent;&quot;&gt; OwnerProductCrossRef::class,&lt;/span&gt;&lt;/div&gt;&lt;div&gt;&lt;span style=&quot;font-family: &amp;quot;JetBrains Mono&amp;quot;, monospace; background-color: transparent; color: rgb(243, 243, 243);&quot;&gt;&lt;span style=&quot;color: rgb(243, 243, 243); white-space: pre;&quot;&gt;&#x9;&lt;/span&gt;&lt;span style=&quot;color: rgb(243, 243, 243); white-space: pre;&quot;&gt;&#x9;&lt;/span&gt;&lt;font style=&quot;color: light-dark(rgb(0, 0, 0), rgb(154, 228, 255));&quot;&gt;parentColumn = &lt;/font&gt;&lt;/span&gt;&lt;span style=&quot;color: rgb(243, 243, 243); font-family: &amp;quot;JetBrains Mono&amp;quot;, monospace; background-color: transparent;&quot;&gt;&quot;ownerID&quot;,&lt;/span&gt;&lt;/div&gt;&lt;div&gt;&lt;span style=&quot;font-family: &amp;quot;JetBrains Mono&amp;quot;, monospace; background-color: transparent; color: rgb(243, 243, 243);&quot;&gt;&lt;span style=&quot;color: rgb(243, 243, 243); white-space: pre;&quot;&gt;&#x9;&lt;/span&gt;&lt;span style=&quot;color: rgb(243, 243, 243); white-space: pre;&quot;&gt;&#x9;&lt;/span&gt;&lt;font style=&quot;color: light-dark(rgb(13, 196, 243), rgb(154, 228, 255));&quot;&gt;entityColumn =&lt;/font&gt;&lt;/span&gt;&lt;span style=&quot;color: rgb(243, 243, 243); font-family: &amp;quot;JetBrains Mono&amp;quot;, monospace; background-color: transparent;&quot;&gt; &quot;productID&quot;&lt;/span&gt;&lt;/div&gt;&lt;div style=&quot;&quot;&gt;&lt;pre style=&quot;font-family: &amp;quot;JetBrains Mono&amp;quot;, monospace;&quot;&gt;&lt;span style=&quot;color: rgb(188, 190, 196);&quot;&gt;&lt;span style=&quot;white-space: pre;&quot;&gt;&#x9;&lt;/span&gt;)&lt;/span&gt;&lt;/pre&gt;&lt;/div&gt;&lt;div&gt;&lt;span style=&quot;font-family: Helvetica; font-size: 12px; font-style: normal; font-variant-ligatures: normal; font-variant-caps: normal; font-weight: 400; letter-spacing: normal; orphans: 2; text-align: center; text-indent: 0px; text-transform: none; widows: 2; word-spacing: 0px; -webkit-text-stroke-width: 0px; text-decoration-thickness: initial; text-decoration-style: initial; text-decoration-color: initial; float: none; display: inline !important;&quot;&gt;&lt;font style=&quot;color: rgb(243, 243, 243);&quot;&gt;)&lt;/font&gt;&lt;/span&gt;&lt;/div&gt;&lt;div&gt;&lt;span style=&quot;font-family: Helvetica; font-size: 12px; font-style: normal; font-variant-ligatures: normal; font-variant-caps: normal; font-weight: 400; letter-spacing: normal; orphans: 2; text-align: center; text-indent: 0px; text-transform: none; widows: 2; word-spacing: 0px; -webkit-text-stroke-width: 0px; text-decoration-thickness: initial; text-decoration-style: initial; text-decoration-color: initial; float: none; display: inline !important;&quot;&gt;&lt;font style=&quot;color: rgb(243, 243, 243);&quot;&gt;products: List&amp;lt;Product&amp;gt;&lt;/font&gt;&lt;/span&gt;&lt;/div&gt;" style="text;whiteSpace=wrap;html=1;spacingLeft=15;" vertex="1" parent="xdBG03dk_vRxA38id0hs-25">
          <mxGeometry y="80" width="480" height="200" as="geometry" />
        </mxCell>
        <mxCell id="nMxPNi23z6h84rDVdCxf-61" value="&lt;div style=&quot;color: rgb(188, 190, 196);&quot;&gt;&lt;pre style=&quot;font-family: &amp;quot;JetBrains Mono&amp;quot;, monospace;&quot;&gt;&lt;div style=&quot;&quot;&gt;&lt;pre style=&quot;font-family: &amp;quot;JetBrains Mono&amp;quot;, monospace;&quot;&gt;&lt;div style=&quot;&quot;&gt;&lt;pre style=&quot;font-family: &amp;quot;JetBrains Mono&amp;quot;, monospace;&quot;&gt;&lt;span style=&quot;color: rgb(122, 126, 133);&quot;&gt;// StoreListApp.kt&lt;/span&gt;&lt;/pre&gt;&lt;/div&gt;&lt;/pre&gt;&lt;pre style=&quot;font-family: &amp;quot;JetBrains Mono&amp;quot;, monospace;&quot;&gt;&lt;div style=&quot;background-color: rgb(30, 31, 34);&quot;&gt;&lt;pre style=&quot;font-family:&#39;JetBrains Mono&#39;,monospace;font-size:9,8pt;&quot;&gt;&lt;span style=&quot;color:#cf8e6d;&quot;&gt;val &lt;/span&gt;pViewModel: ProductViewModel = &lt;span style=&quot;color:#6bb38a;&quot;&gt;viewModel&lt;/span&gt;()&lt;br&gt;&lt;span style=&quot;color:#cf8e6d;&quot;&gt;val &lt;/span&gt;oViewModel: OwnerViewModel = &lt;span style=&quot;color:#6bb38a;&quot;&gt;viewModel&lt;/span&gt;()&lt;br&gt;&lt;span style=&quot;color:#cf8e6d;&quot;&gt;val &lt;/span&gt;owners = oViewModel.&lt;span style=&quot;color:#c77dbb;&quot;&gt;getOwners&lt;/span&gt;.&lt;span style=&quot;color:#6bb38a;&quot;&gt;collectAsState&lt;/span&gt;(&lt;span style=&quot;color:#56c1d6;&quot;&gt;initial = &lt;/span&gt;&lt;span style=&quot;font-style:italic;&quot;&gt;listOf&lt;/span&gt;&amp;lt;Owner&amp;gt;()).&lt;span style=&quot;color:#c77dbb;&quot;&gt;value&lt;/span&gt;&lt;/pre&gt;&lt;/div&gt;&lt;/pre&gt;&lt;/div&gt;&lt;/pre&gt;&lt;/div&gt;" style="whiteSpace=wrap;html=1;verticalAlign=top;fontStyle=0;startSize=40;horizontal=1;rounded=0;shadow=0;strokeWidth=1;align=left;spacingTop=0;spacing=0;spacingLeft=15;" vertex="1" parent="nMxPNi23z6h84rDVdCxf-1">
          <mxGeometry x="-320" y="2763" width="600" height="160" as="geometry" />
        </mxCell>
        <mxCell id="xdBG03dk_vRxA38id0hs-53" style="edgeStyle=orthogonalEdgeStyle;rounded=0;orthogonalLoop=1;jettySize=auto;html=1;" edge="1" parent="nMxPNi23z6h84rDVdCxf-1">
          <mxGeometry relative="1" as="geometry">
            <mxPoint x="-600" y="1400" as="sourcePoint" />
            <mxPoint x="-599" y="1480" as="targetPoint" />
            <Array as="points">
              <mxPoint x="-599" y="1400" />
            </Array>
          </mxGeometry>
        </mxCell>
        <mxCell id="xdBG03dk_vRxA38id0hs-54" value="Defines&lt;div&gt;database builder&lt;/div&gt;" style="edgeLabel;html=1;align=center;verticalAlign=middle;resizable=0;points=[];" vertex="1" connectable="0" parent="xdBG03dk_vRxA38id0hs-53">
          <mxGeometry x="-0.2324" y="2" relative="1" as="geometry">
            <mxPoint y="7" as="offset" />
          </mxGeometry>
        </mxCell>
        <mxCell id="xdBG03dk_vRxA38id0hs-61" value="&lt;font style=&quot;color: rgb(102, 255, 179);&quot;&gt;OwnerRepository&lt;/font&gt;(ownerDao: &lt;font color=&quot;#66b2ff&quot;&gt;&lt;font color=&quot;#66b2ff&quot;&gt;OwnerDao&lt;/font&gt;&lt;/font&gt;)" style="swimlane;fontStyle=0;align=center;verticalAlign=top;childLayout=stackLayout;horizontal=1;startSize=26;horizontalStack=0;resizeParent=1;resizeLast=0;collapsible=1;marginBottom=0;rounded=0;shadow=0;strokeWidth=1;spacingLeft=19;swimlaneFillColor=none;html=1;" vertex="1" parent="nMxPNi23z6h84rDVdCxf-1">
          <mxGeometry y="1603" width="440" height="264" as="geometry">
            <mxRectangle x="230" y="140" width="160" height="26" as="alternateBounds" />
          </mxGeometry>
        </mxCell>
        <mxCell id="xdBG03dk_vRxA38id0hs-62" value="getOwners() : Flow&amp;lt;List&amp;lt;&lt;span style=&quot;color: rgb(255, 153, 255); text-align: center;&quot;&gt;&amp;nbsp;&lt;span style=&quot;color: rgb(255, 153, 255); text-align: center;&quot;&gt;Owner&lt;/span&gt;&lt;/span&gt;&amp;gt;&amp;gt;" style="text;align=left;verticalAlign=top;spacingLeft=15;spacingRight=4;overflow=hidden;rotatable=0;points=[[0,0.5],[1,0.5]];portConstraint=eastwest;html=1;" vertex="1" parent="xdBG03dk_vRxA38id0hs-61">
          <mxGeometry y="26" width="440" height="34" as="geometry" />
        </mxCell>
        <mxCell id="xdBG03dk_vRxA38id0hs-63" value="addOwner(owner&amp;nbsp;:&amp;nbsp;&amp;nbsp;&lt;span style=&quot;color: rgb(255, 153, 255); text-align: center;&quot;&gt;Owner&lt;/span&gt;)&amp;nbsp;: Long (Returns ID)" style="text;align=left;verticalAlign=top;spacingLeft=15;spacingRight=4;overflow=hidden;rotatable=0;points=[[0,0.5],[1,0.5]];portConstraint=eastwest;rounded=0;shadow=0;html=1;" vertex="1" parent="xdBG03dk_vRxA38id0hs-61">
          <mxGeometry y="60" width="440" height="34" as="geometry" />
        </mxCell>
        <mxCell id="xdBG03dk_vRxA38id0hs-64" value="updateOwner(owner&amp;nbsp;:&amp;nbsp;&lt;span style=&quot;color: rgb(255, 153, 255); text-align: center;&quot;&gt;&amp;nbsp;&lt;/span&gt;&lt;span style=&quot;color: rgb(255, 153, 255); text-align: center;&quot;&gt;Owner&lt;/span&gt;)" style="text;align=left;verticalAlign=top;spacingLeft=15;spacingRight=4;overflow=hidden;rotatable=0;points=[[0,0.5],[1,0.5]];portConstraint=eastwest;rounded=0;shadow=0;html=1;" vertex="1" parent="xdBG03dk_vRxA38id0hs-61">
          <mxGeometry y="94" width="440" height="34" as="geometry" />
        </mxCell>
        <mxCell id="xdBG03dk_vRxA38id0hs-65" value="deleteOwner(owner&amp;nbsp;:&amp;nbsp;&lt;span style=&quot;color: rgb(255, 153, 255); text-align: center;&quot;&gt;&amp;nbsp;&lt;/span&gt;&lt;span style=&quot;color: rgb(255, 153, 255); text-align: center;&quot;&gt;Owner&lt;/span&gt;)" style="text;align=left;verticalAlign=top;spacingLeft=15;spacingRight=4;overflow=hidden;rotatable=0;points=[[0,0.5],[1,0.5]];portConstraint=eastwest;html=1;" vertex="1" parent="xdBG03dk_vRxA38id0hs-61">
          <mxGeometry y="128" width="440" height="34" as="geometry" />
        </mxCell>
        <mxCell id="xdBG03dk_vRxA38id0hs-66" value="getOwnerWithProducts(ownerID : Long) :&amp;nbsp;&lt;span style=&quot;color: rgb(255, 153, 255); text-align: center;&quot;&gt;&lt;span style=&quot;color: rgb(255, 255, 255); text-align: left;&quot;&gt;Flow&amp;lt;&lt;/span&gt;ProductWithProducts&lt;/span&gt;&amp;gt;" style="text;align=left;verticalAlign=top;spacingLeft=15;spacingRight=4;overflow=hidden;rotatable=0;points=[[0,0.5],[1,0.5]];portConstraint=eastwest;html=1;" vertex="1" parent="xdBG03dk_vRxA38id0hs-61">
          <mxGeometry y="162" width="440" height="34" as="geometry" />
        </mxCell>
        <mxCell id="xdBG03dk_vRxA38id0hs-67" value="&lt;div style=&quot;text-align: center;&quot;&gt;&lt;span style=&quot;background-color: transparent; color: light-dark(rgb(0, 0, 0), rgb(255, 255, 255));&quot;&gt;assignProductToOwner(ownerID : Long, productID: Long&lt;/span&gt;&lt;span style=&quot;background-color: transparent; color: light-dark(rgb(0, 0, 0), rgb(255, 255, 255));&quot;&gt;)&lt;/span&gt;&lt;/div&gt;" style="text;align=left;verticalAlign=top;spacingLeft=15;spacingRight=4;overflow=hidden;rotatable=0;points=[[0,0.5],[1,0.5]];portConstraint=eastwest;html=1;" vertex="1" parent="xdBG03dk_vRxA38id0hs-61">
          <mxGeometry y="196" width="440" height="34" as="geometry" />
        </mxCell>
        <mxCell id="xdBG03dk_vRxA38id0hs-68" value="&lt;div style=&quot;text-align: center;&quot;&gt;&lt;span style=&quot;background-color: transparent; color: light-dark(rgb(0, 0, 0), rgb(255, 255, 255));&quot;&gt;unassignProductToOwner(ownerID : Long, productID: Long&lt;/span&gt;&lt;span style=&quot;background-color: transparent; color: light-dark(rgb(0, 0, 0), rgb(255, 255, 255));&quot;&gt;)&lt;/span&gt;&lt;/div&gt;" style="text;align=left;verticalAlign=top;spacingLeft=15;spacingRight=4;overflow=hidden;rotatable=0;points=[[0,0.5],[1,0.5]];portConstraint=eastwest;html=1;" vertex="1" parent="xdBG03dk_vRxA38id0hs-61">
          <mxGeometry y="230" width="440" height="34" as="geometry" />
        </mxCell>
        <mxCell id="xdBG03dk_vRxA38id0hs-69" value="&lt;u&gt;Repositories&lt;/u&gt; -&lt;span style=&quot;font-size: 11px; text-wrap-mode: nowrap; background-color: rgb(18, 18, 18);&quot;&gt;&amp;nbsp;Classes&amp;nbsp;tasked&amp;nbsp;&lt;/span&gt;&lt;span style=&quot;font-size: 11px; text-wrap-mode: nowrap; background-color: transparent; color: light-dark(rgb(0, 0, 0), rgb(255, 255, 255));&quot;&gt;with communicating with&amp;nbsp;&lt;/span&gt;&lt;span style=&quot;font-size: 11px; text-wrap-mode: nowrap; background-color: transparent; color: light-dark(rgb(0, 0, 0), rgb(255, 255, 255));&quot;&gt;the database&lt;/span&gt;" style="shape=umlFrame;whiteSpace=wrap;html=1;pointerEvents=0;width=680;height=40;" vertex="1" parent="nMxPNi23z6h84rDVdCxf-1">
          <mxGeometry x="-400" y="1480" width="880" height="510" as="geometry" />
        </mxCell>
        <mxCell id="xdBG03dk_vRxA38id0hs-86" style="edgeStyle=orthogonalEdgeStyle;rounded=0;orthogonalLoop=1;jettySize=auto;html=1;entryX=0.373;entryY=0;entryDx=0;entryDy=0;entryPerimeter=0;" edge="1" parent="nMxPNi23z6h84rDVdCxf-1" source="xdBG03dk_vRxA38id0hs-85" target="nMxPNi23z6h84rDVdCxf-61">
          <mxGeometry relative="1" as="geometry" />
        </mxCell>
        <mxCell id="xdBG03dk_vRxA38id0hs-87" value="Creates and uses&lt;div&gt;ProductViewModel&lt;/div&gt;" style="edgeLabel;html=1;align=center;verticalAlign=middle;resizable=0;points=[];" vertex="1" connectable="0" parent="xdBG03dk_vRxA38id0hs-86">
          <mxGeometry x="-0.284" y="-2" relative="1" as="geometry">
            <mxPoint x="2" y="11" as="offset" />
          </mxGeometry>
        </mxCell>
        <mxCell id="xdBG03dk_vRxA38id0hs-89" style="edgeStyle=orthogonalEdgeStyle;rounded=0;orthogonalLoop=1;jettySize=auto;html=1;entryX=0.64;entryY=0;entryDx=0;entryDy=0;entryPerimeter=0;" edge="1" parent="nMxPNi23z6h84rDVdCxf-1" source="xdBG03dk_vRxA38id0hs-69" target="xdBG03dk_vRxA38id0hs-85">
          <mxGeometry relative="1" as="geometry" />
        </mxCell>
        <mxCell id="xdBG03dk_vRxA38id0hs-91" value="" style="group" vertex="1" connectable="0" parent="nMxPNi23z6h84rDVdCxf-1">
          <mxGeometry x="-600" y="2080" width="1000" height="600" as="geometry" />
        </mxCell>
        <mxCell id="nMxPNi23z6h84rDVdCxf-11" value="ProductViewModel(productRepository: &lt;font style=&quot;color: rgb(102, 255, 179);&quot;&gt;ProductRepository&lt;/font&gt;) : ViewModel()" style="swimlane;fontStyle=0;align=center;verticalAlign=top;childLayout=stackLayout;horizontal=1;startSize=40;horizontalStack=0;resizeParent=1;resizeLast=0;collapsible=1;marginBottom=0;rounded=0;shadow=0;strokeWidth=1;html=1;" vertex="1" parent="xdBG03dk_vRxA38id0hs-91">
          <mxGeometry x="40" y="80" width="440" height="360" as="geometry">
            <mxRectangle x="550" y="140" width="160" height="26" as="alternateBounds" />
          </mxGeometry>
        </mxCell>
        <mxCell id="nMxPNi23z6h84rDVdCxf-12" value="productSerialNumberState : Int" style="text;align=left;verticalAlign=top;spacingLeft=15;spacingRight=4;overflow=hidden;rotatable=0;points=[[0,0.5],[1,0.5]];portConstraint=eastwest;fontColor=#FFFFFF;html=1;" vertex="1" parent="nMxPNi23z6h84rDVdCxf-11">
          <mxGeometry y="40" width="440" height="34" as="geometry" />
        </mxCell>
        <mxCell id="nMxPNi23z6h84rDVdCxf-13" value="productPriceState : Int" style="text;align=left;verticalAlign=top;spacingLeft=15;spacingRight=4;overflow=hidden;rotatable=0;points=[[0,0.5],[1,0.5]];portConstraint=eastwest;html=1;" vertex="1" parent="nMxPNi23z6h84rDVdCxf-11">
          <mxGeometry y="74" width="440" height="34" as="geometry" />
        </mxCell>
        <mxCell id="nMxPNi23z6h84rDVdCxf-14" value="getProducts : Flow&amp;lt;List&amp;lt;&amp;nbsp;&lt;span style=&quot;color: rgb(255, 153, 255); text-align: center;&quot;&gt;Product&lt;/span&gt;&amp;gt;&amp;gt;" style="text;align=left;verticalAlign=top;spacingLeft=15;spacingRight=4;overflow=hidden;rotatable=0;points=[[0,0.5],[1,0.5]];portConstraint=eastwest;html=1;" vertex="1" parent="nMxPNi23z6h84rDVdCxf-11">
          <mxGeometry y="108" width="440" height="34" as="geometry" />
        </mxCell>
        <mxCell id="nMxPNi23z6h84rDVdCxf-15" value="" style="line;strokeWidth=1;fillColor=none;align=left;verticalAlign=middle;spacingTop=-1;spacingLeft=3;spacingRight=3;rotatable=0;labelPosition=right;points=[];portConstraint=eastwest;strokeColor=inherit;" vertex="1" parent="nMxPNi23z6h84rDVdCxf-11">
          <mxGeometry y="142" width="440" height="8" as="geometry" />
        </mxCell>
        <mxCell id="nMxPNi23z6h84rDVdCxf-16" value="onProductSerialNumberChange(newSerialNumber : Int)" style="text;align=left;verticalAlign=top;spacingLeft=15;spacingRight=4;overflow=hidden;rotatable=0;points=[[0,0.5],[1,0.5]];portConstraint=eastwest;html=1;" vertex="1" parent="nMxPNi23z6h84rDVdCxf-11">
          <mxGeometry y="150" width="440" height="34" as="geometry" />
        </mxCell>
        <mxCell id="nMxPNi23z6h84rDVdCxf-17" value="onProductPriceChange(newPrice : Int)" style="text;align=left;verticalAlign=top;spacingLeft=15;spacingRight=4;overflow=hidden;rotatable=0;points=[[0,0.5],[1,0.5]];portConstraint=eastwest;html=1;" vertex="1" parent="nMxPNi23z6h84rDVdCxf-11">
          <mxGeometry y="184" width="440" height="34" as="geometry" />
        </mxCell>
        <mxCell id="nMxPNi23z6h84rDVdCxf-18" value="getProductById(id: Long) : Flow&amp;lt;&amp;nbsp;&lt;span style=&quot;color: rgb(255, 153, 255); text-align: center;&quot;&gt;Product&lt;/span&gt;&amp;gt; " style="text;align=left;verticalAlign=top;spacingLeft=15;spacingRight=4;overflow=hidden;rotatable=0;points=[[0,0.5],[1,0.5]];portConstraint=eastwest;html=1;" vertex="1" parent="nMxPNi23z6h84rDVdCxf-11">
          <mxGeometry y="218" width="440" height="34" as="geometry" />
        </mxCell>
        <mxCell id="nMxPNi23z6h84rDVdCxf-19" value="addProduct(productEntity : &amp;nbsp;&lt;span style=&quot;color: rgb(255, 153, 255); text-align: center;&quot;&gt;Product&lt;/span&gt;) " style="text;align=left;verticalAlign=top;spacingLeft=15;spacingRight=4;overflow=hidden;rotatable=0;points=[[0,0.5],[1,0.5]];portConstraint=eastwest;html=1;" vertex="1" parent="nMxPNi23z6h84rDVdCxf-11">
          <mxGeometry y="252" width="440" height="34" as="geometry" />
        </mxCell>
        <mxCell id="nMxPNi23z6h84rDVdCxf-20" value="updateProduct(productEntity : &amp;nbsp;&lt;span style=&quot;color: rgb(255, 153, 255); text-align: center;&quot;&gt;Product&lt;/span&gt;) " style="text;align=left;verticalAlign=top;spacingLeft=15;spacingRight=4;overflow=hidden;rotatable=0;points=[[0,0.5],[1,0.5]];portConstraint=eastwest;html=1;" vertex="1" parent="nMxPNi23z6h84rDVdCxf-11">
          <mxGeometry y="286" width="440" height="34" as="geometry" />
        </mxCell>
        <mxCell id="nMxPNi23z6h84rDVdCxf-21" value="deleteProduct(productEntity : &amp;nbsp;&lt;span style=&quot;color: rgb(255, 153, 255); text-align: center;&quot;&gt;Product&lt;/span&gt;) " style="text;align=left;verticalAlign=top;spacingLeft=15;spacingRight=4;overflow=hidden;rotatable=0;points=[[0,0.5],[1,0.5]];portConstraint=eastwest;html=1;" vertex="1" parent="nMxPNi23z6h84rDVdCxf-11">
          <mxGeometry y="320" width="440" height="34" as="geometry" />
        </mxCell>
        <mxCell id="xdBG03dk_vRxA38id0hs-70" value="OwnerViewModel(ownerRepository: &lt;font style=&quot;color: rgb(102, 255, 179);&quot;&gt;OwnerRepository&lt;/font&gt;) : ViewModel()" style="swimlane;fontStyle=0;align=center;verticalAlign=top;childLayout=stackLayout;horizontal=1;startSize=40;horizontalStack=0;resizeParent=1;resizeLast=0;collapsible=1;marginBottom=0;rounded=0;shadow=0;strokeWidth=1;html=1;" vertex="1" parent="xdBG03dk_vRxA38id0hs-91">
          <mxGeometry x="520" y="80" width="440" height="456" as="geometry">
            <mxRectangle x="550" y="140" width="160" height="26" as="alternateBounds" />
          </mxGeometry>
        </mxCell>
        <mxCell id="xdBG03dk_vRxA38id0hs-71" value="&lt;span style=&quot;color: rgb(255, 255, 255); text-align: center;&quot;&gt;ownerName&lt;/span&gt;State : Int" style="text;align=left;verticalAlign=top;spacingLeft=15;spacingRight=4;overflow=hidden;rotatable=0;points=[[0,0.5],[1,0.5]];portConstraint=eastwest;fontColor=#FFFFFF;html=1;" vertex="1" parent="xdBG03dk_vRxA38id0hs-70">
          <mxGeometry y="40" width="440" height="34" as="geometry" />
        </mxCell>
        <mxCell id="xdBG03dk_vRxA38id0hs-81" value="&lt;span style=&quot;color: rgb(255, 255, 255); text-align: center;&quot;&gt;ownerProductIDsState : List&amp;lt;Int&amp;gt;&lt;/span&gt;" style="text;align=left;verticalAlign=top;spacingLeft=15;spacingRight=4;overflow=hidden;rotatable=0;points=[[0,0.5],[1,0.5]];portConstraint=eastwest;fontColor=#FFFFFF;html=1;" vertex="1" parent="xdBG03dk_vRxA38id0hs-70">
          <mxGeometry y="74" width="440" height="34" as="geometry" />
        </mxCell>
        <mxCell id="xdBG03dk_vRxA38id0hs-73" value="get&lt;span style=&quot;text-align: center;&quot;&gt;Owner&lt;/span&gt;s : Flow&amp;lt;List&amp;lt;&amp;nbsp;&lt;span style=&quot;color: rgb(255, 153, 255); text-align: center;&quot;&gt;Owner&lt;/span&gt;&amp;gt;&amp;gt;" style="text;align=left;verticalAlign=top;spacingLeft=15;spacingRight=4;overflow=hidden;rotatable=0;points=[[0,0.5],[1,0.5]];portConstraint=eastwest;html=1;" vertex="1" parent="xdBG03dk_vRxA38id0hs-70">
          <mxGeometry y="108" width="440" height="34" as="geometry" />
        </mxCell>
        <mxCell id="xdBG03dk_vRxA38id0hs-74" value="" style="line;strokeWidth=1;fillColor=none;align=left;verticalAlign=middle;spacingTop=-1;spacingLeft=3;spacingRight=3;rotatable=0;labelPosition=right;points=[];portConstraint=eastwest;strokeColor=inherit;" vertex="1" parent="xdBG03dk_vRxA38id0hs-70">
          <mxGeometry y="142" width="440" height="8" as="geometry" />
        </mxCell>
        <mxCell id="xdBG03dk_vRxA38id0hs-75" value="on&lt;span style=&quot;text-align: center;&quot;&gt;OwnerNameChange&lt;/span&gt;(newNameString : Int)" style="text;align=left;verticalAlign=top;spacingLeft=15;spacingRight=4;overflow=hidden;rotatable=0;points=[[0,0.5],[1,0.5]];portConstraint=eastwest;html=1;" vertex="1" parent="xdBG03dk_vRxA38id0hs-70">
          <mxGeometry y="150" width="440" height="34" as="geometry" />
        </mxCell>
        <mxCell id="xdBG03dk_vRxA38id0hs-76" value="on&lt;span style=&quot;text-align: center;&quot;&gt;OwnerProductIDsChange&lt;/span&gt;(newlist : List&amp;lt;Int&amp;gt;)" style="text;align=left;verticalAlign=top;spacingLeft=15;spacingRight=4;overflow=hidden;rotatable=0;points=[[0,0.5],[1,0.5]];portConstraint=eastwest;html=1;" vertex="1" parent="xdBG03dk_vRxA38id0hs-70">
          <mxGeometry y="184" width="440" height="34" as="geometry" />
        </mxCell>
        <mxCell id="xdBG03dk_vRxA38id0hs-77" value="get&lt;span style=&quot;text-align: center;&quot;&gt;Owner&lt;/span&gt;ById(id: Long) : Flow&amp;lt;&amp;nbsp;&lt;span style=&quot;color: rgb(255, 153, 255); text-align: center;&quot;&gt;Owner&lt;/span&gt;&amp;gt;&amp;nbsp;" style="text;align=left;verticalAlign=top;spacingLeft=15;spacingRight=4;overflow=hidden;rotatable=0;points=[[0,0.5],[1,0.5]];portConstraint=eastwest;html=1;" vertex="1" parent="xdBG03dk_vRxA38id0hs-70">
          <mxGeometry y="218" width="440" height="34" as="geometry" />
        </mxCell>
        <mxCell id="xdBG03dk_vRxA38id0hs-82" value="get&lt;span style=&quot;text-align: center;&quot;&gt;OwnerWithProducts&lt;/span&gt;(id: Long) : Flow&amp;lt;&amp;nbsp;&lt;span style=&quot;color: rgb(255, 153, 255); text-align: center;&quot;&gt;OwnerWithProducts&lt;/span&gt;&amp;gt;&amp;nbsp;" style="text;align=left;verticalAlign=top;spacingLeft=15;spacingRight=4;overflow=hidden;rotatable=0;points=[[0,0.5],[1,0.5]];portConstraint=eastwest;html=1;" vertex="1" parent="xdBG03dk_vRxA38id0hs-70">
          <mxGeometry y="252" width="440" height="34" as="geometry" />
        </mxCell>
        <mxCell id="xdBG03dk_vRxA38id0hs-78" value="add&lt;span style=&quot;text-align: center;&quot;&gt;Owner&lt;/span&gt;(&lt;span style=&quot;text-align: center;&quot;&gt;owner&lt;/span&gt;Entity :&amp;nbsp;&amp;nbsp;&lt;span style=&quot;color: rgb(255, 153, 255); text-align: center;&quot;&gt;Owner&lt;/span&gt;)&amp;nbsp;" style="text;align=left;verticalAlign=top;spacingLeft=15;spacingRight=4;overflow=hidden;rotatable=0;points=[[0,0.5],[1,0.5]];portConstraint=eastwest;html=1;" vertex="1" parent="xdBG03dk_vRxA38id0hs-70">
          <mxGeometry y="286" width="440" height="34" as="geometry" />
        </mxCell>
        <mxCell id="xdBG03dk_vRxA38id0hs-80" value="deletet&lt;span style=&quot;text-align: center;&quot;&gt;Owner&lt;/span&gt;(&lt;span style=&quot;text-align: center;&quot;&gt;owner&lt;/span&gt;Entity :&amp;nbsp;&amp;nbsp;&lt;span style=&quot;color: rgb(255, 153, 255); text-align: center;&quot;&gt;Owner&lt;/span&gt;)&amp;nbsp;" style="text;align=left;verticalAlign=top;spacingLeft=15;spacingRight=4;overflow=hidden;rotatable=0;points=[[0,0.5],[1,0.5]];portConstraint=eastwest;html=1;" vertex="1" parent="xdBG03dk_vRxA38id0hs-70">
          <mxGeometry y="320" width="440" height="34" as="geometry" />
        </mxCell>
        <mxCell id="xdBG03dk_vRxA38id0hs-79" value="update&lt;span style=&quot;text-align: center;&quot;&gt;Owner&lt;/span&gt;(&lt;span style=&quot;text-align: center;&quot;&gt;owner&lt;/span&gt;Entity :&amp;nbsp;&amp;nbsp;&lt;span style=&quot;color: rgb(255, 153, 255); text-align: center;&quot;&gt;Owner&lt;/span&gt;)&amp;nbsp;" style="text;align=left;verticalAlign=top;spacingLeft=15;spacingRight=4;overflow=hidden;rotatable=0;points=[[0,0.5],[1,0.5]];portConstraint=eastwest;html=1;" vertex="1" parent="xdBG03dk_vRxA38id0hs-70">
          <mxGeometry y="354" width="440" height="34" as="geometry" />
        </mxCell>
        <mxCell id="xdBG03dk_vRxA38id0hs-83" value="assignProductToOwner(&lt;span style=&quot;text-align: center;&quot;&gt;ownerId : Long, productId. Long&lt;/span&gt;)&amp;nbsp;" style="text;align=left;verticalAlign=top;spacingLeft=15;spacingRight=4;overflow=hidden;rotatable=0;points=[[0,0.5],[1,0.5]];portConstraint=eastwest;html=1;" vertex="1" parent="xdBG03dk_vRxA38id0hs-70">
          <mxGeometry y="388" width="440" height="34" as="geometry" />
        </mxCell>
        <mxCell id="xdBG03dk_vRxA38id0hs-84" value="unassignProductToOwner(&lt;span style=&quot;text-align: center;&quot;&gt;ownerId : Long, productId. Long&lt;/span&gt;)&amp;nbsp;" style="text;align=left;verticalAlign=top;spacingLeft=15;spacingRight=4;overflow=hidden;rotatable=0;points=[[0,0.5],[1,0.5]];portConstraint=eastwest;html=1;" vertex="1" parent="xdBG03dk_vRxA38id0hs-70">
          <mxGeometry y="422" width="440" height="34" as="geometry" />
        </mxCell>
        <mxCell id="xdBG03dk_vRxA38id0hs-85" value="&lt;span style=&quot;font-size: 11px; text-wrap-mode: nowrap; background-color: rgb(18, 18, 18);&quot;&gt;&lt;u&gt;ViewModel&lt;/u&gt; - Holder of&amp;nbsp;&lt;/span&gt;&lt;span style=&quot;font-size: 11px; text-wrap-mode: nowrap; background-color: transparent; color: light-dark(rgb(0, 0, 0), rgb(255, 255, 255));&quot;&gt;business logic and&amp;nbsp;&lt;/span&gt;&lt;span style=&quot;font-size: 11px; text-wrap-mode: nowrap; background-color: transparent; color: light-dark(rgb(0, 0, 0), rgb(255, 255, 255));&quot;&gt;holder of screen&amp;nbsp;&lt;/span&gt;&lt;span style=&quot;font-size: 11px; text-wrap-mode: nowrap; background-color: transparent; color: light-dark(rgb(0, 0, 0), rgb(255, 255, 255));&quot;&gt;level state&lt;/span&gt;" style="shape=umlFrame;whiteSpace=wrap;html=1;pointerEvents=0;width=450;height=40;" vertex="1" parent="xdBG03dk_vRxA38id0hs-91">
          <mxGeometry width="1000" height="600" as="geometry" />
        </mxCell>
      </root>
    </mxGraphModel>
  </diagram>
</mxfile>
